<svg version="1.0" xmlns="http://www.w3.org/2000/svg" width="2432" height="2432" viewBox="0 0 1824 1824"><path d="M100.5 585.5c-50.1 9.5-87.9 46.7-98.6 97-2.7 13.1-2.7 38 .2 51.2 5 22.9 15.1 42.7 30.2 59 3.4 3.7 42 43.4 85.7 88.3 109.1 111.9 274.6 281.6 302.5 310.2 18.4 18.9 24.7 24.7 31.7 29.3 22 14.1 44.5 20.3 70.7 19.2 20.8-.8 38.3-6 56.1-16.7 12.5-7.5 18.5-12.9 49-44.2 15.6-16.1 45.8-47.1 67-68.8 21.2-21.7 75.4-77.3 120.4-123.5s85.3-87.5 89.5-91.8l7.7-7.8 36.9 37.8c20.3 20.8 55.2 56.5 77.5 79.3 49.9 51 163.4 167.4 186.5 191.1 9.7 9.9 20.2 19.8 24.5 22.8 14.5 10.2 31.5 17.4 48.8 20.7 11.9 2.2 38.3 1.5 49.3-1.4 23.2-6.2 41.8-17.1 57.9-33.9 8.9-9.2 327.4-335.5 369.4-378.3 31-31.6 38.8-41.1 46.5-56 9.3-17.9 13-32.5 13.8-53.6 1.1-28-6-52.6-21.9-76.2-35.7-53-109.7-66.9-163.7-30.8-11.7 7.8-13 9.1-77.3 74.6-208.3 212.2-251.9 256.5-252.7 256.5-.8 0-89.8-90.9-289.4-295.7-31.4-32.3-38-37.7-55-45.8-34.5-16.5-75.8-15.1-109.2 3.8-12 6.7-19.3 12.9-36.5 30.6-22.1 22.7-249.1 255.6-278 285.2l-21.5 22-10.6-10.5c-5.9-5.8-76.4-78.1-156.8-160.6S201.3 615.4 196.7 611.7c-14.4-12-28.6-19.3-47.3-24.3-12.7-3.3-36.2-4.2-48.9-1.9z"/></svg>