<svg aria-hidden="true" style="width:0;height:0;position:absolute;overflow:hidden" xmlns="http://www.w3.org/2000/svg"><defs><symbol id="close" viewBox="0 0 32 32"><path d="M23.733 10.304 22.229 8.8l-5.963 5.963L10.303 8.8l-1.504 1.504 5.963 5.963-5.963 5.963 1.504 1.504 5.963-5.963 5.963 5.963 1.504-1.504-5.963-5.963 5.963-5.963z"/></symbol><symbol id="star" viewBox="0 0 34 32"><path d="M6.836 31.998a.602.602 0 0 1-.596-.703l1.872-10.831-7.929-7.67a.599.599 0 0 1 .336-1.025l10.956-1.58 4.9-9.854a.606.606 0 0 1 1.086 0l4.9 9.854 10.957 1.58a.599.599 0 0 1 .336 1.025l-7.929 7.671 1.872 10.831a.602.602 0 0 1-.878.634l-9.8-5.113-9.801 5.113a.608.608 0 0 1-.282.068z"/></symbol><symbol id="search" viewBox="0 0 34 32"><path fill="#33485d" style="fill:var(--color1,#33485d)" d="m33.449 29.919-9.307-9.296a12.594 12.594 0 0 0 2.828-7.957c0-6.984-5.689-12.667-12.682-12.667S1.606 5.681 1.606 12.666c0 6.984 5.689 12.667 12.682 12.667 3.017 0 5.787-1.061 7.967-2.825l9.307 9.296c.261.26.683.26.944 0l.944-.943a.666.666 0 0 0 0-.943zm-19.161-7.252c-5.521 0-10.012-4.486-10.012-10s4.491-10 10.012-10c5.521 0 10.012 4.486 10.012 10s-4.491 10-10.012 10z"/></symbol><symbol id="zap4asti" viewBox="0 0 32 32"><path d="M8.581.971 14.78 7.17a3.207 3.207 0 0 1 0 4.536l-3.074 3.074a3.207 3.207 0 0 1-4.536 0L.971 8.581a3.208 3.208 0 0 1 0-4.536L4.045.971a3.208 3.208 0 0 1 4.536 0zm-.756.756a2.138 2.138 0 0 0-3.024 0L1.727 4.801a2.138 2.138 0 0 0 0 3.024l6.199 6.199a2.138 2.138 0 0 0 3.024 0l3.074-3.074a2.138 2.138 0 0 0 0-3.024L7.825 1.727z"/><path d="m10.35 14.72-.673.831 1.533 1.243c.431.407 1.11.399 1.531-.023l3.972-3.992v-.001a1.098 1.098 0 0 0 .024-1.529l-1.189-1.497-.837.665 1.224 1.542.022.022a.03.03 0 0 1 0 .043l-3.972 3.992a.03.03 0 0 1-.043 0l-.02-.02-1.573-1.275z"/><path fill="#e67861" style="fill:var(--color3,#e67861)" d="M4.835 2.768a1.96 1.96 0 0 1 2.772 0l4.384 4.384a1.96 1.96 0 0 1 0 2.772L9.925 11.99a1.96 1.96 0 0 1-2.772 0L2.769 7.606a1.96 1.96 0 0 1 0-2.772l2.066-2.066zm2.015.756a.89.89 0 0 0-1.26 0L3.524 5.59a.89.89 0 0 0 0 1.26l4.384 4.384a.89.89 0 0 0 1.26 0l2.066-2.066a.89.89 0 0 0 0-1.26L6.85 3.524z"/><path d="m10.043 13.473-.756-.756-.756.756.756.756.756-.756zM14.179 9.337l-.756-.756-.756.756.756.756.756-.756zM12.745 10.947l-.756-.756-1.512 1.512.756.756 1.512-1.512zM24.711 29.132l-.673.831 1.531 1.24c.431.407 1.11.399 1.531-.023l3.972-3.992a1.098 1.098 0 0 0 .024-1.529l-1.198-1.51-.837.665 1.233 1.554.022.022a.03.03 0 0 1 0 .043l-3.972 3.992a.03.03 0 0 1-.043 0l-.02-.02-1.571-1.273z"/><path d="m23.047 15.509 6.199 6.199a3.207 3.207 0 0 1 0 4.536l-3.074 3.074a3.207 3.207 0 0 1-4.536 0l-6.199-6.199a3.207 3.207 0 0 1 0-4.536l3.074-3.074a3.208 3.208 0 0 1 4.536 0zm-.756.756a2.138 2.138 0 0 0-3.024 0l-3.074 3.074a2.138 2.138 0 0 0 0 3.024l6.199 6.199a2.138 2.138 0 0 0 3.024 0l3.074-3.074a2.138 2.138 0 0 0 0-3.024l-6.199-6.199z"/><path fill="#e67861" style="fill:var(--color3,#e67861)" d="M24.559 21.556a1.782 1.782 0 0 1 0 2.52l-.554.554a1.782 1.782 0 0 1-2.52 0l-1.361-1.361a1.782 1.782 0 0 1 0-2.52l.554-.554a1.782 1.782 0 0 1 2.52 0l1.361 1.361zm-.604-2.116a2.852 2.852 0 0 0-4.032 0l-.554.554a2.852 2.852 0 0 0 0 4.032l1.361 1.361a2.852 2.852 0 0 0 4.032 0l.554-.554a2.852 2.852 0 0 0 0-4.032l-1.361-1.361z"/><path d="m24.509 27.654-.756-.756-.756.756.756.756.756-.756zM17.857 21.002l-.756-.756-.756.756.756.756.756-.756zM28.288 23.875l-.756-.756-.756.756.756.756.756-.756zM21.636 17.222l-.756-.756-.756.756.756.756.756-.756zM4.59 23.927l4.417 4.189a.746.746 0 0 0 1.055-1.055l-4.189-4.417.776-.736 4.189 4.417a1.815 1.815 0 0 1-2.567 2.567l-4.417-4.189.736-.776z"/><path d="M12.085 27.661v-1.069h-1.069v1.069h1.069z"/><path d="M11.027 26.603v-1.069H9.958v1.069h1.069zM9.565 30.181v-1.069H8.496v1.069h1.069z"/><path d="M8.507 29.123v-1.069H7.438v1.069h1.069zM12.415 31.307l-2.301-2.301a.534.534 0 1 1 .756-.756l2.301 2.301a.534.534 0 1 1-.756.756zM9.173 24.742 9.942 24l-2.969-3.077-.769.742 2.969 3.077zM5.831 27.916l.735-.776-3.105-2.94-.735.776 3.105 2.94z"/><path d="M4.948 19.815c-.618.193-1.347.636-2.015 1.304s-1.112 1.397-1.304 2.015c-.201.645-.095 1.02.07 1.185s.54.271 1.185.07c.618-.193 1.347-.636 2.015-1.304s1.112-1.397 1.304-2.015c.201-.645.095-1.02-.07-1.185s-.54-.271-1.185-.07zm-.319-1.021c.787-.246 1.673-.252 2.26.334s.58 1.473.334 2.259c-.254.814-.804 1.687-1.569 2.452s-1.639 1.315-2.452 1.569c-.787.246-1.673.252-2.26-.334s-.58-1.473-.334-2.259c.254-.814.804-1.687 1.569-2.452s1.639-1.315 2.452-1.569zM22.407 5.539l4.417 4.189a.746.746 0 0 0 1.055-1.055L23.69 4.256l.776-.736 4.189 4.417a1.815 1.815 0 0 1-2.567 2.567l-4.417-4.189.736-.776z"/><path d="M29.902 9.274V8.205h-1.069v1.069h1.069z"/><path d="M28.844 8.216V7.147h-1.069v1.069h1.069zM27.382 11.793v-1.069h-1.069v1.069h1.069z"/><path d="M26.324 10.735V9.666h-1.069v1.069h1.069zM30.802 13.489l-2.871-2.871a.534.534 0 1 1 .756-.756l2.871 2.871a.534.534 0 1 1-.756.756zM26.991 6.355l.769-.742-2.969-3.077-.769.742 2.969 3.077zM23.649 9.528l.735-.776-3.105-2.94-.735.776 3.105 2.94z"/><path d="M22.765 1.427c-.618.193-1.347.636-2.015 1.304s-1.112 1.397-1.304 2.015c-.201.645-.095 1.02.07 1.185s.54.271 1.185.07c.618-.193 1.347-.636 2.015-1.304S23.828 3.3 24.02 2.682c.201-.645.095-1.02-.07-1.185s-.54-.271-1.185-.07zm-.318-1.02c.787-.246 1.673-.252 2.26.334s.58 1.473.334 2.26c-.254.814-.804 1.687-1.569 2.452s-1.639 1.315-2.452 1.569c-.787.246-1.673.252-2.259-.334s-.58-1.473-.334-2.26c.254-.814.804-1.687 1.569-2.452S21.635.661 22.448.407z"/></symbol><symbol id="tourbine" viewBox="0 0 32 32"><path d="M11.451 12.615c-3.837 0-6.961 3.123-6.961 6.961s3.123 6.961 6.961 6.961c3.837 0 6.961-3.123 6.961-6.961s-3.123-6.961-6.961-6.961zm0-1.069c4.428 0 8.03 3.602 8.03 8.03s-3.602 8.03-8.03 8.03c-4.428 0-8.03-3.602-8.03-8.03s3.602-8.03 8.03-8.03z"/><path fill="#e67861" style="fill:var(--color3,#e67861)" d="M10.035 15.466c-2.271 0-4.119 1.849-4.119 4.119s1.849 4.119 4.119 4.119c2.271 0 4.119-1.849 4.119-4.119s-1.849-4.119-4.119-4.119zm0-1.069c2.861 0 5.188 2.327 5.188 5.188s-2.327 5.188-5.188 5.188c-2.861 0-5.188-2.327-5.188-5.188s2.327-5.188 5.188-5.188z"/><path d="M11.802 8.334a.535.535 0 0 0-.118.747l3.262 4.486 1.885 1.088c3.622 2.091 5.053 6.238 3.011 9.776s-6.35 4.371-9.971 2.28L7.97 25.614a.534.534 0 1 0-.534.926l1.901 1.097c4.047 2.337 9.047 1.459 11.432-2.672s.645-8.899-3.402-11.236l-1.688-.975-3.129-4.302a.534.534 0 0 0-.747-.118z"/><path d="M12.761 2.108a.179.179 0 0 0-.128.051L9.355 5.375a.18.18 0 0 0-.049.168l1.262 5.382a.534.534 0 0 1-1.04.244L8.265 5.787c-.1-.424.03-.87.341-1.175l3.278-3.216c.239-.234.561-.363.895-.357l7.456.13c.474.008.902.284 1.105.712l3.377 7.105-.873 1.067c3.087 3.193 4.776 6.474 4.556 10.361-.364 6.431-5.131 10.242-10.447 10.817s-11.22-2.068-13.955-8.5a.534.534 0 1 1 .984-.418c2.538 5.968 7.975 8.385 12.856 7.856s9.165-3.988 9.495-9.815c.204-3.61-1.4-6.707-4.584-9.89l-4.811-4.811a.534.534 0 1 1 .756-.756l4.393 4.393.374-.457-3.086-6.493a.18.18 0 0 0-.158-.102l-7.456-.13z"/><path fill="#e67861" style="fill:var(--color3,#e67861)" d="M13.078 6.197a.751.751 0 1 1 .505-1.412.751.751 0 0 1-.505 1.412zM11.616 4.88a1.82 1.82 0 1 0 3.427 1.22 1.82 1.82 0 0 0-3.426-1.22z"/></symbol><symbol id="aktuator" viewBox="0 0 32 32"><path d="M13.591 14.801c.234.18.277.516.097.75l-6.824 8.846-.024.024a.035.035 0 0 0 0 .05l1.109 1.109a.035.035 0 0 0 .05 0l.012-.012 8.328-7.319a.534.534 0 1 1 .705.803L8.74 26.35a1.104 1.104 0 0 1-1.548-.014l-1.109-1.109a1.106 1.106 0 0 1-.028-1.534l6.786-8.796a.535.535 0 0 1 .75-.097z"/><path d="m1.385 27.939 2.792 2.793 4.101-3.255-3.638-3.638-3.255 4.101zm2.807-5.255a.57.57 0 0 1 .806 0l4.435 4.435a.57.57 0 0 1 0 .806l-4.887 3.88a.57.57 0 0 1-.806 0L.313 28.378a.57.57 0 0 1 0-.806l3.88-4.888zM11.615 17.6l.255.319-.836.667-.266-.333-.005-.007c-.854-1.149-1.445-2.337-1.683-3.399-.234-1.045-.148-2.093.546-2.787.842-.842 2.242-.837 3.595-.409 1.396.442 2.943 1.387 4.3 2.744s2.302 2.904 2.744 4.3c.428 1.353.433 2.753-.409 3.595-.675.675-1.685.775-2.696.566-1.027-.212-2.175-.76-3.293-1.559l.621-.87c1.036.74 2.048 1.208 2.887 1.382.855.176 1.418.031 1.724-.275.399-.399.542-1.263.146-2.516-.383-1.21-1.226-2.613-2.481-3.867s-2.657-2.098-3.867-2.481c-1.253-.397-2.117-.253-2.516.146-.315.315-.459.904-.259 1.798.196.874.702 1.923 1.492 2.988z"/><path d="M19.047 22.291c.184.231.52.269.751.085l2.965-2.36.001-.001c1.304-1.028 2-2.368 1.797-4.026-.197-1.605-1.227-3.417-3.122-5.466l-.014-.015-.015-.014c-2.05-1.896-3.838-2.902-5.432-3.085-1.642-.189-2.973.506-4.045 1.742l-.007.008-2.369 2.976a.534.534 0 1 0 .836.666l2.355-2.958c.898-1.032 1.901-1.51 3.108-1.371 1.255.144 2.831.964 4.813 2.794 1.83 1.982 2.676 3.584 2.832 4.854.149 1.219-.329 2.215-1.399 3.057l-.001.001-2.968 2.363a.534.534 0 0 0-.085.751z"/><path d="M15.825 8.191c.222.194.56.171.754-.051l.69-.79c.531-.568 1.316-.874 2.305-.728 1.007.148 2.252.772 3.614 2.134 1.392 1.392 2.016 2.61 2.165 3.587.145.949-.148 1.714-.706 2.278l-.741.642a.535.535 0 0 0 .7.808l.77-.668.013-.013c.801-.801 1.218-1.909 1.019-3.209-.196-1.279-.979-2.694-2.466-4.181-1.467-1.466-2.91-2.244-4.214-2.436-1.319-.194-2.464.219-3.25 1.064l-.006.006-.701.802a.535.535 0 0 0 .051.754zM12.117 17.179a5.167 5.167 0 0 1-.247-.475c-.193-.425-.283-.795-.289-1.083-.006-.285.07-.448.161-.538.151-.151.53-.255 1.246.012.676.252 1.481.782 2.24 1.541s1.29 1.565 1.541 2.24c.267.716.163 1.095.012 1.246-.105.105-.312.193-.692.151-.376-.042-.852-.207-1.373-.508l-.534.926c.605.349 1.224.582 1.79.645.563.062 1.147-.039 1.566-.457.618-.618.537-1.561.234-2.375-.318-.853-.949-1.784-1.787-2.623s-1.77-1.469-2.623-1.787c-.813-.303-1.756-.384-2.375.234-.356.356-.483.836-.474 1.315.009.477.152.993.385 1.505.086.19.186.381.298.572l.923-.54z"/><path fill="#e67861" style="fill:var(--color3,#e67861)" d="M5.104 27.032a.763.763 0 0 0-1.078 1.078.763.763 0 0 0 1.078-1.078zm-1.834-.756c.714-.714 1.876-.714 2.59 0s.714 1.876 0 2.59-1.876.714-2.59 0-.714-1.876 0-2.59z"/><path d="M25.133 11.377a.535.535 0 0 0 .756-.023l1.734-1.842a.535.535 0 0 0-.779-.733l-1.734 1.842a.535.535 0 0 0 .023.756zm-4.6-4.688a.535.535 0 0 0 .755.039l5.111-4.606a.03.03 0 0 1 .043 0l.001.001 3.236 3.216a.03.03 0 0 1 0 .043l-.019.019-.837 1.025a.534.534 0 1 0 .828.676l.805-.986c.408-.431.4-1.11-.022-1.532l-.001-.001-3.236-3.216-.001-.001a1.1 1.1 0 0 0-1.543-.011l-5.082 4.579a.535.535 0 0 0-.039.755z"/><path fill="#e67861" style="fill:var(--color3,#e67861)" d="m27.343 5.623-1.361 1.361 3.427 3.427L30.77 9.05l-3.427-3.427zm.579-.932 3.78 3.78a.82.82 0 0 1 0 1.159l-1.713 1.713a.82.82 0 0 1-1.159 0l-3.78-3.78a.82.82 0 0 1 0-1.159l1.713-1.713a.82.82 0 0 1 1.159 0z"/></symbol><symbol id="zap4astis" viewBox="0 0 32 32"><path fill="#e67861" style="fill:var(--color3,#e67861)" d="m29.917 27.017-.745 1.215a4.632 4.632 0 0 1-6.37 1.53l-1.215-.745a4.632 4.632 0 0 1-1.53-6.37l.745-1.215a4.632 4.632 0 0 1 6.37-1.53l1.215.745a4.632 4.632 0 0 1 1.53 6.37zm-.911-.558a3.564 3.564 0 0 0-1.177-4.9l-1.215-.745a3.564 3.564 0 0 0-4.9 1.177l-.745 1.215a3.564 3.564 0 0 0 1.177 4.9l1.215.745a3.564 3.564 0 0 0 4.9-1.177l.745-1.215z"/><path d="M26.624 26.253a1.782 1.782 0 0 1-2.45.589l-.669-.41a1.782 1.782 0 0 1-.589-2.45l.261-.425a1.783 1.783 0 0 1 2.45-.589l.669.41a1.782 1.782 0 0 1 .589 2.45l-.261.425zm1.172.133a2.85 2.85 0 0 0-.942-3.92l-.669-.41a2.85 2.85 0 0 0-3.92.942l-.261.425a2.85 2.85 0 0 0 .942 3.92l.668.41a2.85 2.85 0 0 0 3.92-.942l.261-.425z"/><path fill="#e67861" style="fill:var(--color3,#e67861)" d="m22.369 30.333.558-.912-.912-.558-.558.912.912.558zM28.103 20.974l.558-.912-.912-.558-.558.912.912.558z"/><path fill="#e67861" style="fill:var(--color3,#e67861)" d="m30.571 20.848.003 4.268-1.008-1.08-.061-3.249a1.987 1.987 0 0 0-.269-1.117c-.555-.949-1.713-1.232-2.662-.677l-3.017 1.447-1.424-.409 3.903-1.96a3.058 3.058 0 0 1 1.713-.411c1.687.095 2.917 1.503 2.822 3.19zM23.971 31.622l3.803-1.936-1.42-.407-2.923 1.421a1.988 1.988 0 0 1-1.117.268c-1.098-.063-1.875-.966-1.813-2.064l-.082-3.345-1.011-1.083.027 4.367a3.05 3.05 0 0 0 .412 1.713c.851 1.46 2.664 1.916 4.124 1.065z"/><path d="m11.986 9.462-.745 1.215a4.632 4.632 0 0 1-6.37 1.53l-1.215-.745a4.632 4.632 0 0 1-1.53-6.37l.745-1.215a4.632 4.632 0 0 1 6.37-1.53l1.215.745a4.632 4.632 0 0 1 1.53 6.37zm-.912-.559a3.564 3.564 0 0 0-1.177-4.9l-1.215-.745a3.564 3.564 0 0 0-4.9 1.177L3.037 5.65a3.564 3.564 0 0 0 1.177 4.9l1.215.745a3.564 3.564 0 0 0 4.9-1.177l.745-1.215z"/><path fill="#e67861" style="fill:var(--color3,#e67861)" d="M8.693 8.698a1.78 1.78 0 0 1-2.45.588l-.668-.41a1.782 1.782 0 0 1-.589-2.45l.261-.425a1.782 1.782 0 0 1 2.45-.589l.668.41a1.782 1.782 0 0 1 .589 2.45l-.261.425zm1.172.133a2.85 2.85 0 0 0-.942-3.92l-.668-.41a2.85 2.85 0 0 0-3.92.942l-.261.425a2.85 2.85 0 0 0 .942 3.92l.668.41a2.85 2.85 0 0 0 3.92-.942l.261-.425z"/><path d="m4.438 12.778.558-.912-.912-.559-.558.912.912.559zM10.172 3.419l.558-.912-.912-.558-.558.912.912.558z"/><path d="m12.64 3.292.003 4.268-1.008-1.08-.061-3.249a1.987 1.987 0 0 0-.269-1.117c-.555-.949-1.713-1.232-2.662-.677L5.626 2.884l-1.424-.409L8.105.515A3.067 3.067 0 0 1 9.818.103c1.687.095 2.917 1.503 2.822 3.19zM6.039 14.067l3.803-1.936-1.42-.407-2.923 1.421a1.988 1.988 0 0 1-1.117.268c-1.098-.063-1.875-.966-1.813-2.064l-.082-3.345-1.011-1.083.027 4.367a3.05 3.05 0 0 0 .412 1.713c.851 1.46 2.664 1.916 4.124 1.065zM14.834 23.214c-.006-.075-.016-.15-.024-.224-.016-.122-.035-.244-.053-.365a7.728 7.728 0 0 0-.091-.433c-.025-.102-.048-.204-.077-.305l-.005-.016a6.85 6.85 0 0 0-.196-.565c-.01-.026-.018-.053-.029-.078a6.726 6.726 0 0 0-.261-.565l-.022-.046a7.404 7.404 0 0 0-.326-.556l-.017-.027a6.9 6.9 0 0 0-.37-.51c-.013-.014-.022-.029-.033-.042a7.43 7.43 0 0 0-.38-.43c-.026-.027-.05-.057-.076-.083a6.787 6.787 0 0 0-.351-.327c-.053-.046-.101-.096-.155-.141-.094-.078-.194-.149-.291-.222-.085-.064-.168-.131-.256-.191-.077-.053-.16-.098-.238-.147-.107-.066-.207-.135-.315-.194l-.024-.012c-.043-.024-.089-.042-.132-.065a6.808 6.808 0 0 0-.464-.223c-.067-.029-.137-.053-.205-.078-.139-.053-.276-.107-.418-.153-.081-.026-.164-.044-.246-.067-.133-.037-.267-.075-.401-.104-.092-.02-.186-.032-.278-.048-.128-.021-.255-.044-.385-.059-.107-.012-.217-.017-.326-.024s-.228-.015-.343-.017c-.037 0-.074-.006-.112-.006-.101 0-.201.011-.301.016-.08.004-.16.005-.241.012a6.462 6.462 0 0 0-.524.064l-.117.018a6.896 6.896 0 0 0-.594.131l-.038.008-.019.006a6.735 6.735 0 0 0-.612.201l-.053.018c-.2.078-.395.165-.587.26-.017.009-.033.015-.049.024a6.777 6.777 0 0 0-.545.31c-.02.013-.041.024-.06.037a7.127 7.127 0 0 0-.483.342c-.029.022-.059.043-.087.066-.14.111-.273.229-.403.35-.042.038-.084.074-.124.113-.11.107-.213.221-.316.335-.053.06-.107.116-.16.177a5.59 5.59 0 0 0-.234.304c-.062.082-.127.16-.185.248-.065.094-.121.194-.18.291s-.115.176-.166.267l-.01.021a6.792 6.792 0 0 0-.332.707c-.027.067-.049.134-.074.201a6.607 6.607 0 0 0-.356 1.387c-.011.071-.024.141-.032.213a7.036 7.036 0 0 0-.051.807 6.574 6.574 0 0 0 .055.835c.015.122.035.244.053.365.026.146.057.29.091.433.025.102.048.204.077.305l.005.016c.057.193.124.381.196.566.01.026.018.053.028.077.079.194.167.384.263.569l.02.042c.101.193.211.379.329.56l.013.022c.117.178.242.35.373.517l.026.034c.122.152.252.296.386.437.023.025.045.053.07.077.114.117.236.226.358.334.05.044.097.092.148.134.097.081.2.154.301.23.082.061.16.126.245.184s.165.101.247.153c.102.063.202.131.308.189l.021.01c.229.124.465.235.707.332.067.027.134.049.201.074a6.517 6.517 0 0 0 .798.243c.194.046.391.083.59.113.071.011.141.024.213.032.268.033.539.051.809.053.203 0 .406-.012.61-.031.075-.006.15-.015.225-.024.122-.015.244-.035.365-.053.146-.026.29-.057.433-.091.101-.025.203-.048.304-.077l.016-.005a6.85 6.85 0 0 0 .565-.196c.026-.01.053-.018.078-.029a7.03 7.03 0 0 0 .564-.26l.047-.023a7.074 7.074 0 0 0 1.088-.709l.046-.035c.147-.118.286-.244.422-.373.03-.028.062-.053.092-.084.11-.107.213-.225.317-.34.05-.053.103-.107.151-.166.074-.089.141-.184.213-.277s.139-.177.202-.27c.046-.068.086-.141.131-.213.071-.113.146-.224.213-.342l.01-.021c.124-.229.234-.464.331-.706.027-.067.049-.134.074-.202.071-.186.133-.376.184-.569a7.192 7.192 0 0 0 .172-.82c.011-.07.024-.14.032-.211a6.574 6.574 0 0 0 .017-1.417zm-3.681-1.884c.024-.03.044-.064.066-.095.037-.053.076-.102.107-.157.023-.037.042-.076.062-.115.028-.053.058-.101.083-.154.019-.041.034-.084.051-.125.022-.053.045-.104.063-.16.014-.042.024-.086.036-.13.015-.053.032-.107.045-.164.01-.044.014-.089.021-.133.01-.056.02-.111.026-.168.004-.046.004-.091.006-.137.003-.057.007-.113.006-.17 0-.046-.006-.092-.01-.139s-.004-.097-.01-.146c.016.013.03.028.046.042.167.144.325.297.474.459l.089.098c.332.374.616.789.844 1.235l.034.071c.104.21.195.427.272.649.006.014.014.028.016.043l-.001.007-.535.707a1.607 1.607 0 0 1-1.28.64H9.44c-.009-.026-.021-.05-.031-.075l-.011-.026c-.008-.019-.014-.038-.023-.056l1.573-1.573c.073-.073.141-.15.205-.23zm-3.341-3.367c.153-.003.305 0 .456.011.076.004.154.004.229.012.213.02.425.052.635.096.057.012.111.029.167.043.16.039.32.082.476.134.072.024.142.053.213.078a6.085 6.085 0 0 1 .533.231l.126.882a1.606 1.606 0 0 1-.452 1.357L8.622 22.38c-.019-.009-.038-.015-.057-.023l-.026-.011c-.025-.01-.049-.022-.075-.031v-2.507a2.567 2.567 0 0 0-.045-.463c-.007-.043-.017-.085-.027-.127a2.734 2.734 0 0 0-.101-.342c-.013-.035-.023-.069-.037-.103a2.753 2.753 0 0 0-.206-.396c-.017-.026-.037-.05-.053-.076a2.583 2.583 0 0 0-.226-.284c-.014-.015-.025-.034-.039-.05.025 0 .053-.003.081-.003zm-4.326 2.043v.001a5.72 5.72 0 0 1 .499-.51c.028-.025.053-.053.083-.075a5.897 5.897 0 0 1 1.34-.885l.025-.012c.25-.119.508-.219.772-.301l.309.155c.543.269.886.824.884 1.43v2.507c-.026.009-.05.021-.075.031l-.026.011c-.019.008-.038.014-.057.023l-1.573-1.573a2.72 2.72 0 0 0-.373-.304l-.062-.043a2.607 2.607 0 0 0-.405-.213l-.073-.029a2.727 2.727 0 0 0-.451-.137l-.025-.004a2.67 2.67 0 0 0-.463-.045c-.013 0-.026-.004-.039-.004H3.75c-.069 0-.138.006-.206.013-.033 0-.065 0-.098.006l.039-.042zm-1.302 4.211v.004c-.031.036-.065.07-.093.107a6.052 6.052 0 0 1-.026-.504c.001-.214.013-.427.037-.64.006-.053.017-.107.024-.157.022-.16.047-.32.083-.474.014-.064.033-.126.049-.189a5.67 5.67 0 0 1 .123-.417c.024-.072.051-.142.078-.213a6.13 6.13 0 0 1 .154-.365l.063-.132.882-.126a1.603 1.603 0 0 1 1.357.452l1.573 1.573c-.009.018-.015.037-.023.053l-.012.028c-.01.025-.022.049-.03.074H4.199c-.103 0-.206.006-.308.018-.036.004-.07.013-.107.019-.066.011-.132.02-.196.035-.04.01-.079.023-.119.035-.058.017-.117.031-.173.053-.041.015-.081.034-.121.053-.053.022-.107.043-.16.069-.041.02-.079.045-.119.067-.049.027-.098.053-.145.083s-.076.053-.115.083c-.038.029-.09.062-.132.098l-.107.095c-.037.032-.082.073-.12.113s-.061.069-.092.106zm2.525 2.101v.004c-.02.025-.036.053-.053.078-.042.057-.084.114-.121.174-.02.031-.035.066-.053.098a2.113 2.113 0 0 0-.092.17c-.018.037-.03.076-.046.114-.023.056-.048.112-.068.17-.013.04-.022.081-.034.122-.017.057-.035.114-.047.172-.009.043-.014.086-.021.129-.01.057-.02.114-.026.172-.004.045-.004.09-.006.136 0 .057-.007.114-.006.17 0 .047.006.093.01.14s.004.096.01.144l-.042-.038a5.866 5.866 0 0 1-.48-.466l-.086-.094a5.949 5.949 0 0 1-.843-1.236c-.012-.022-.022-.046-.034-.069a5.874 5.874 0 0 1-.273-.65l-.016-.043.534-.718a1.607 1.607 0 0 1 1.28-.64H6.42c.009.025.02.049.03.074l.012.028c.008.018.014.037.023.053l-1.573 1.573a2.823 2.823 0 0 0-.205.233zm3.628 3.352-.001.004a5.532 5.532 0 0 1-.59.011c-.075 0-.15-.006-.224-.011a5.753 5.753 0 0 1-.57-.068c-.047-.008-.095-.012-.141-.021a5.875 5.875 0 0 1-.693-.18c-.047-.016-.093-.035-.14-.053a5.814 5.814 0 0 1-.636-.269l-.125-.884a1.606 1.606 0 0 1 .452-1.357l1.573-1.573.057.024.025.01c.025.01.049.022.075.031v2.225c0 .103.006.206.018.308.004.036.013.071.019.107.011.066.02.131.035.196.01.041.024.081.036.121.017.058.031.115.053.172.015.041.035.081.053.122.022.053.043.107.069.16.02.041.045.08.067.12.027.048.053.099.083.146s.053.077.083.115.062.089.097.131c.034.042.065.071.097.107s.072.082.111.119c.039.038.072.063.107.094s.07.064.107.093c-.033.001-.065.001-.097.003zm.086-5.639a.567.567 0 0 1-.065.097.552.552 0 0 1-.123.123.567.567 0 0 1-.097.065.538.538 0 0 1-.413 0 .567.567 0 0 1-.097-.065.55.55 0 0 1-.115-.111.536.536 0 0 1-.074-.107.538.538 0 0 1 0-.413.557.557 0 0 1 .074-.112v.001a.532.532 0 0 1 .115-.112.567.567 0 0 1 .097-.065.538.538 0 0 1 .413 0c.034.018.067.04.097.065a.552.552 0 0 1 .123.123c.025.03.047.063.065.097a.538.538 0 0 1 0 .413zm3.949 3.615-.001.004a5.706 5.706 0 0 1-.459.474l-.098.089c-.374.33-.788.611-1.232.837l-.071.034c-.21.104-.427.195-.649.272l-.043.016-.714-.535a1.607 1.607 0 0 1-.64-1.28v-2.224c.026-.009.05-.021.075-.031l.026-.011c.019-.008.038-.014.057-.023l1.573 1.573c.115.113.24.215.373.305l.059.041c.129.083.264.154.405.213l.073.03c.144.058.293.102.445.134l.047.008c.154.029.31.045.467.046h.031c.107 0 .214-.007.32-.02-.013.018-.028.033-.042.048zm1.388-3.176c-.006.053-.017.107-.025.16-.022.16-.047.315-.082.47-.014.065-.033.129-.05.193a5.425 5.425 0 0 1-.122.413c-.025.072-.053.144-.079.213a6.06 6.06 0 0 1-.153.363l-.064.133-.882.126c-.498.07-1-.098-1.357-.452l-1.573-1.573c.009-.019.015-.038.023-.057l.011-.026c.01-.025.022-.049.031-.075h2.225c.103 0 .206-.006.308-.018.036-.004.071-.013.107-.019.066-.011.131-.02.196-.035.041-.01.08-.024.121-.036.058-.017.115-.031.172-.053.041-.015.08-.035.122-.053.053-.022.107-.043.16-.069.041-.02.079-.045.119-.067.049-.027.099-.053.146-.083s.077-.053.115-.083c.038-.03.089-.062.131-.097s.071-.065.107-.097c.036-.033.082-.072.12-.112s.061-.07.092-.107l-.001.006c.031-.036.064-.07.093-.107.014.165.026.331.026.5a5.955 5.955 0 0 1-.037.64z"/><path d="m4.897 17.142.529-.682 2.546 1.977-.529.682-2.546-1.977zM8.087 29.166l.529-.682 2.546 1.977-.53.682-2.546-1.977zM10.524 16.877l.857-.108.403 3.198-.857.108-.403-3.198zM4.277 27.635l.857-.108.403 3.198-.857.108-.403-3.198zM1.106 21.308l-.108-.857 3.198-.403.108.857-3.198.403zM11.864 27.554l-.108-.857 3.198-.403.108.857-3.198.403zM1.37 26.934l-.682-.529 1.977-2.546.682.529-1.977 2.546zM13.395 23.744l-.682-.529 1.977-2.546.682.529-1.977 2.546z"/><path fill="#e67861" style="fill:var(--color3,#e67861)" d="m7.244 16.23.75-.485 1.811 2.799-.75.485-1.811-2.799zM6.255 29.059l.75-.485 1.811 2.799-.75.485-1.811-2.799zM12.828 17.892l.873.187-.699 3.26-.873-.187.699-3.26zM3.057 26.264l.873.187-.699 3.26-.873-.187.699-3.26zM2.12 19.003l.187-.873 3.26.698-.187.873-3.26-.698zM10.492 28.774l.187-.873 3.26.699-.187.873-3.26-.699zM.458 24.587l-.485-.75 2.799-1.811.485.75-2.799 1.811zM13.288 25.576l-.485-.75 2.799-1.811.485.75-2.799 1.811zM30.846 7.491c-.006-.075-.015-.15-.024-.225-.015-.122-.035-.244-.053-.365a6.926 6.926 0 0 0-.091-.433 6.478 6.478 0 0 0-.077-.305l-.005-.016a6.85 6.85 0 0 0-.196-.565c-.01-.026-.018-.053-.029-.078a6.726 6.726 0 0 0-.261-.565l-.022-.046a7.404 7.404 0 0 0-.326-.556l-.017-.027a6.9 6.9 0 0 0-.37-.51c-.013-.014-.022-.029-.033-.042a6.747 6.747 0 0 0-.38-.43c-.026-.027-.05-.057-.076-.083a6.787 6.787 0 0 0-.351-.327c-.053-.046-.101-.096-.155-.141-.094-.078-.194-.149-.291-.222-.085-.064-.167-.131-.255-.191-.077-.053-.16-.098-.238-.147-.107-.066-.207-.135-.315-.194-.008-.005-.017-.008-.025-.012-.043-.023-.089-.042-.132-.065a6.588 6.588 0 0 0-.464-.223c-.067-.029-.137-.053-.205-.078-.139-.053-.276-.107-.418-.153-.081-.026-.164-.044-.246-.067-.133-.037-.267-.075-.401-.103-.092-.02-.186-.032-.278-.048-.128-.021-.255-.044-.384-.059-.107-.012-.217-.017-.326-.024s-.228-.015-.343-.017c-.037 0-.074-.006-.112-.006-.101 0-.201.011-.301.015-.08.004-.16.005-.241.012a6.94 6.94 0 0 0-.524.063l-.117.018a7.294 7.294 0 0 0-.594.131l-.038.008-.019.006a6.735 6.735 0 0 0-.612.201l-.053.018c-.2.078-.395.164-.587.26-.017.009-.033.015-.049.024a6.777 6.777 0 0 0-.545.31l-.06.037a7.127 7.127 0 0 0-.483.342c-.029.022-.059.043-.087.066-.14.111-.273.229-.403.35-.042.038-.084.074-.124.113-.11.107-.213.221-.316.335-.053.06-.107.116-.16.177-.082.098-.16.202-.234.305-.062.082-.127.16-.185.247-.064.094-.12.194-.18.291s-.115.176-.166.267l-.01.021a6.792 6.792 0 0 0-.332.707c-.027.067-.049.134-.074.201a6.517 6.517 0 0 0-.243.798 7.226 7.226 0 0 0-.113.59c-.011.071-.024.141-.032.213a7.036 7.036 0 0 0-.051.807c0 .203.012.406.031.61.006.075.016.15.024.225.016.122.035.244.053.365.026.146.057.29.091.433.025.102.048.204.077.305l.005.016c.057.193.124.381.196.566.01.026.018.053.028.077.079.194.168.383.263.568l.02.042c.101.193.211.38.329.561l.013.022c.117.178.242.35.373.517l.026.034c.122.151.252.296.386.437.024.025.045.053.07.077.114.117.236.226.358.334.05.044.096.092.148.134.097.081.2.154.301.23.082.061.16.126.245.184s.165.101.247.153c.102.063.202.131.308.189l.021.01c.229.124.465.235.707.332.067.027.134.049.201.074a6.517 6.517 0 0 0 .798.243c.194.046.391.083.59.112.071.011.141.024.213.032.268.033.539.051.809.053.203 0 .406-.012.61-.031.075-.006.15-.016.225-.024.122-.016.244-.035.365-.053a7.51 7.51 0 0 0 .432-.091c.101-.025.203-.047.304-.077l.016-.005c.192-.056.38-.123.565-.196.026-.01.053-.018.078-.029a7.03 7.03 0 0 0 .564-.26l.047-.023a7.074 7.074 0 0 0 1.088-.709c.015-.012.032-.023.046-.035.147-.118.286-.244.422-.373.03-.028.062-.053.092-.084.11-.107.213-.224.317-.34.05-.053.103-.107.151-.166.074-.089.141-.184.213-.277s.139-.177.202-.27c.046-.068.086-.141.131-.213.071-.113.146-.224.213-.342l.01-.021c.124-.229.234-.464.331-.706.027-.067.049-.134.074-.202a5.55 5.55 0 0 0 .184-.569 7.169 7.169 0 0 0 .172-.819c.011-.07.024-.14.032-.211a7.02 7.02 0 0 0 .049-.807c0-.203-.012-.406-.031-.61zm-3.68-1.884c.024-.03.044-.063.066-.095.037-.053.076-.102.107-.157.023-.037.042-.076.062-.115.028-.053.058-.101.083-.154.019-.041.034-.084.051-.125.022-.053.045-.104.063-.16.014-.042.024-.086.036-.13.015-.053.033-.107.045-.164.01-.044.014-.089.021-.133.01-.056.02-.111.026-.168.004-.046.004-.091.006-.137.003-.057.007-.113.006-.17 0-.046-.006-.092-.01-.139s-.004-.097-.01-.146c.016.013.03.028.046.042.167.144.325.297.474.459l.089.098c.332.374.616.79.844 1.235l.034.071c.104.21.195.427.272.649.006.014.014.028.017.043l-.001.007-.535.707a1.607 1.607 0 0 1-1.28.64h-2.224c-.009-.026-.021-.05-.031-.075l-.011-.026c-.008-.019-.014-.038-.024-.057l1.573-1.573c.073-.073.141-.15.205-.23zM23.825 2.24c.152-.003.304 0 .456.011.076.004.154.004.229.012.213.02.425.052.635.096.057.012.111.029.167.043.16.039.32.082.476.134.072.024.142.053.213.078a6.085 6.085 0 0 1 .533.231l.126.882a1.606 1.606 0 0 1-.452 1.357l-1.573 1.573c-.019-.009-.038-.015-.057-.023l-.026-.011c-.025-.01-.049-.022-.075-.031V4.085a2.558 2.558 0 0 0-.045-.463c-.007-.043-.017-.085-.027-.127a2.734 2.734 0 0 0-.101-.342c-.013-.035-.023-.069-.037-.103a2.753 2.753 0 0 0-.206-.396c-.017-.026-.037-.05-.053-.076a2.583 2.583 0 0 0-.226-.284c-.014-.015-.025-.034-.039-.05.025 0 .053-.003.081-.003zm-4.326 2.043v.001c.156-.18.322-.35.499-.51.028-.025.053-.053.083-.075a5.953 5.953 0 0 1 1.34-.885l.025-.012c.25-.119.508-.219.772-.301l.309.155c.543.269.886.824.884 1.43v2.507c-.026.009-.05.021-.075.031l-.026.011c-.019.008-.038.014-.057.023L21.68 5.085a2.72 2.72 0 0 0-.373-.304l-.062-.043a2.607 2.607 0 0 0-.405-.213l-.073-.029a2.727 2.727 0 0 0-.451-.137l-.025-.004a2.67 2.67 0 0 0-.463-.045c-.013 0-.026-.004-.039-.004h-.026c-.069 0-.138.006-.206.013-.033 0-.065 0-.098.006l.039-.042zm-1.303 4.21v.004c-.031.036-.065.07-.093.107a6.05 6.05 0 0 1-.026-.503c.001-.214.013-.427.037-.64.006-.053.017-.107.024-.157.022-.16.047-.32.083-.474.014-.064.033-.126.049-.189a5.67 5.67 0 0 1 .123-.417c.024-.071.051-.142.078-.213a6.13 6.13 0 0 1 .218-.497l.882-.126a1.603 1.603 0 0 1 1.357.452l1.573 1.573c-.009.018-.015.037-.023.053l-.012.028c-.01.025-.022.049-.03.074h-2.224c-.103 0-.206.006-.308.018-.036.004-.07.013-.107.019-.066.011-.132.02-.196.035-.04.01-.079.023-.119.035-.058.017-.117.031-.173.053-.041.015-.08.034-.12.053-.053.022-.107.043-.16.069-.041.02-.08.045-.12.067-.048.027-.098.053-.145.083s-.076.053-.115.083c-.038.029-.09.062-.132.098l-.107.095a1.762 1.762 0 0 0-.12.113c-.038.039-.061.069-.092.106zm2.526 2.101v.004c-.02.025-.036.053-.053.078-.042.057-.084.114-.121.174-.02.032-.035.066-.053.098a2.483 2.483 0 0 0-.092.17c-.018.037-.03.076-.046.114-.024.056-.048.112-.068.17-.013.04-.022.081-.034.122-.017.057-.035.114-.047.172-.009.043-.014.086-.021.129-.01.057-.02.114-.026.172-.004.045-.004.09-.006.135 0 .057-.007.114-.006.17 0 .047.006.093.01.14s.004.097.01.145l-.042-.038a5.866 5.866 0 0 1-.48-.466l-.086-.094a5.949 5.949 0 0 1-.843-1.236c-.012-.022-.022-.046-.034-.069a5.682 5.682 0 0 1-.272-.65l-.016-.043.534-.718a1.607 1.607 0 0 1 1.28-.64h2.224c.009.025.02.049.03.074l.012.028c.008.018.014.037.023.053l-1.573 1.573a2.823 2.823 0 0 0-.205.233zm3.627 3.352-.001.004a5.527 5.527 0 0 1-.59.011c-.075 0-.15-.006-.224-.011a5.753 5.753 0 0 1-.57-.068c-.047-.008-.095-.012-.141-.021a5.875 5.875 0 0 1-.693-.18c-.047-.015-.093-.035-.14-.053a5.814 5.814 0 0 1-.636-.269l-.125-.884a1.606 1.606 0 0 1 .452-1.357l1.573-1.573.057.024.025.01c.025.01.049.022.075.031v2.225c0 .103.006.206.018.308.004.036.013.071.019.107.011.066.02.131.035.196.01.041.024.08.036.121.017.058.031.115.053.172.015.041.035.08.053.122.022.053.043.107.069.16.02.041.045.079.067.119.027.049.053.099.083.146s.053.077.083.115c.03.038.062.089.097.131s.065.071.097.107c.033.036.072.082.112.12s.072.063.107.094.07.064.107.093c-.032 0-.065 0-.096.003zm.087-5.638a.567.567 0 0 1-.065.097.552.552 0 0 1-.123.123.567.567 0 0 1-.097.065.538.538 0 0 1-.413 0 .567.567 0 0 1-.097-.065.55.55 0 0 1-.115-.111.536.536 0 0 1-.074-.107.538.538 0 0 1 0-.413.557.557 0 0 1 .074-.112v.001a.505.505 0 0 1 .115-.111.567.567 0 0 1 .097-.065.538.538 0 0 1 .413 0c.034.018.067.04.097.065a.532.532 0 0 1 .123.123c.025.03.047.063.065.097a.538.538 0 0 1 0 .413zm3.949 3.615-.001.004a5.706 5.706 0 0 1-.557.563c-.374.33-.788.611-1.232.837l-.071.034c-.21.104-.427.195-.649.272l-.043.016-.714-.536a1.607 1.607 0 0 1-.64-1.28V9.609c.026-.009.05-.021.075-.031l.026-.011c.019-.008.038-.014.057-.023l1.573 1.573c.115.113.24.215.373.305l.059.041c.128.083.264.154.405.213.024.011.048.02.073.03a2.748 2.748 0 0 0 .492.141c.154.029.31.045.467.046h.031c.107 0 .214-.007.32-.02-.013.018-.028.032-.042.048zm1.388-3.176c-.006.053-.017.107-.025.16-.022.16-.047.315-.082.47-.014.065-.033.129-.05.193a5.425 5.425 0 0 1-.122.413c-.024.073-.053.144-.079.213a6.06 6.06 0 0 1-.153.363l-.064.133-.882.126a1.609 1.609 0 0 1-1.357-.452l-1.573-1.573c.009-.019.015-.038.023-.057l.011-.026c.01-.025.022-.049.031-.075h2.225c.103 0 .206-.006.308-.018.036-.004.071-.013.107-.019.066-.011.131-.02.196-.035.041-.01.081-.024.121-.036.058-.017.115-.031.172-.053.041-.015.081-.035.122-.053.053-.022.107-.043.16-.069.041-.02.079-.045.119-.067.049-.027.099-.053.146-.083s.077-.053.115-.083.089-.062.131-.097c.042-.034.071-.065.107-.097s.082-.072.119-.111.061-.07.092-.107l-.001.006c.031-.036.064-.07.093-.107.014.165.026.331.026.5a5.955 5.955 0 0 1-.037.64z"/><path fill="#e67861" style="fill:var(--color3,#e67861)" d="m20.909 1.418.529-.682 2.546 1.977-.529.682-2.546-1.977zM24.1 13.443l.529-.682 2.546 1.977-.529.682-2.546-1.977zM26.536 1.153l.857-.108.403 3.198-.857.108-.403-3.198zM20.29 11.912l.857-.108.403 3.198-.857.108-.403-3.198zM17.118 5.584l-.108-.857 3.198-.403.108.857-3.198.403zM27.877 11.831l-.108-.857 3.198-.403.108.857-3.198.403zM17.383 11.211l-.682-.529 1.977-2.546.682.529-1.977 2.546zM29.407 8.021l-.682-.529 1.977-2.546.682.529-1.977 2.546z"/><path d="m23.256.506.75-.485 1.811 2.799-.75.485L23.256.506zM22.267 13.336l.75-.485 1.811 2.799-.75.485-1.811-2.799zM28.841 2.168l.873.187-.698 3.26-.873-.187.698-3.26zM19.069 10.541l.873.187-.698 3.26-.873-.187.698-3.26zM18.133 3.28l.187-.873 3.26.699-.187.873-3.26-.699zM26.505 13.051l.187-.873 3.26.698-.187.873-3.26-.698zM16.471 8.864l-.485-.75 2.799-1.811.485.75-2.799 1.811zM29.3 9.853l-.485-.75 2.799-1.811.485.75L29.3 9.853z"/></symbol><symbol id="prokladki" viewBox="0 0 33 32"><path d="M17.574 18.272v10.52a3.207 3.207 0 0 1-3.207 3.207H7.454a3.207 3.207 0 0 1-3.207-3.207V18.299c0-.407.078-.811.229-1.19l4.19-10.49a4.632 4.632 0 0 1 4.302-2.914h3.279c3.227 0 5.466 3.218 4.343 6.244L17.641 17.9a1.073 1.073 0 0 0-.067.372zm-1.069 0c0-.254.045-.506.133-.744l2.949-7.951c.863-2.328-.858-4.803-3.341-4.803h-3.279a3.563 3.563 0 0 0-3.309 2.242l-4.19 10.49a2.131 2.131 0 0 0-.153.793v10.493c0 1.181.957 2.138 2.138 2.138h6.913a2.138 2.138 0 0 0 2.138-2.138v-10.52zM32.941 20.027v8.766A3.207 3.207 0 0 1 29.734 32h-4.347a3.207 3.207 0 0 1-3.207-3.207v-8.766a3.207 3.207 0 0 1 3.207-3.207h4.347a3.207 3.207 0 0 1 3.207 3.207zm-1.069 0a2.138 2.138 0 0 0-2.138-2.138h-4.347a2.138 2.138 0 0 0-2.138 2.138v8.766c0 1.181.957 2.138 2.138 2.138h4.347a2.138 2.138 0 0 0 2.138-2.138v-8.766z"/><path d="m6.774 4.744 3.807-.067-1.003 1.084-2.787.051A1.99 1.99 0 0 0 5.184 8.93l1.577 2.296-.303 1.451-2.154-3.141a3.06 3.06 0 0 1 2.469-4.79zM21.156 16.411l-3.757.617.835-1.218 2.75-.453a1.99 1.99 0 0 0 1.139-3.318l-1.892-2.043.09-1.479 2.585 2.797a3.06 3.06 0 0 1-1.751 5.097zM19.22 2.292l1.028 3.666-1.303-.696-.754-2.683a1.99 1.99 0 0 0-3.422-.766l-1.822 2.106-1.48.074 2.495-2.878a3.06 3.06 0 0 1 5.259 1.178zM2.537 21.46l2.64-1.519-.394 1.423-1.741 1.037a1.99 1.99 0 0 0 0 3.508l1.74 1.104.396 1.428-2.641-1.591a3.06 3.06 0 0 1 0-5.39zM19.689 21.46l-2.64-1.519.394 1.423 1.741 1.037a1.99 1.99 0 0 1 0 3.508l-1.741 1.104-.396 1.428 2.641-1.591a3.06 3.06 0 0 0 0-5.39z"/><path fill="#e67861" style="fill:var(--color3,#e67861)" d="M15.176 18.211v9.727c0 .984-.798 1.782-1.782 1.782H8.522a1.782 1.782 0 0 1-1.782-1.782v-9.717c0-.398.074-.793.218-1.163l3.719-9.552a2.495 2.495 0 0 1 2.325-1.59h3.148a2.495 2.495 0 0 1 2.332 3.379l-3.237 8.538c-.046.121-.069.25-.069.379zm-1.069 0c0-.259.047-.516.139-.758l3.237-8.538a1.425 1.425 0 0 0-1.333-1.931h-3.148c-.588 0-1.115.361-1.328.908l-3.719 9.552c-.096.247-.146.51-.146.776v9.717c0 .394.319.713.713.713h4.872a.713.713 0 0 0 .713-.713V18.21z"/><path d="M7.026 8.267V7.198H5.957v1.069h1.069zM20.118 12.568v1.069h1.069v-1.069h-1.069zM3.89 24.659V23.59H2.821v1.069H3.89zM18.336 24.659V23.59h1.069v1.069h-1.069zM16.861 2.922V1.853h-1.069v1.069h1.069zM25.387 29.648v-1.069h-1.069v1.069h1.069z"/><path fill="#e67861" style="fill:var(--color3,#e67861)" d="M29.734 25.372c0 .984-.798 1.782-1.782 1.782h-.784a1.782 1.782 0 0 1-1.782-1.782v-1.924c0-.984.798-1.782 1.782-1.782h.784c.984 0 1.782.798 1.782 1.782v1.924zm1.069-1.924a2.851 2.851 0 0 0-2.851-2.851h-.784a2.851 2.851 0 0 0-2.851 2.851v1.924a2.851 2.851 0 0 0 2.851 2.851h.784a2.851 2.851 0 0 0 2.851-2.851v-1.924z"/><path d="M25.387 20.24v-1.069h-1.069v1.069h1.069zM30.732 29.648v-1.069h-1.069v1.069h1.069zM30.732 20.24v-1.069h-1.069v1.069h1.069z"/></symbol><symbol id="servoprivod" viewBox="0 0 32 32"><path d="M19.998 17.136v-1.068H18.93v1.068h1.068zM9.353 11.476l-1.317-.783-.534.925 1.317.783.534-.925zM8.401 13.149l-1.317-.783-.534.925 1.317.783.534-.925zM7.476 14.857l-1.317-.783-.534.925 1.317.783.534-.925zM6.265 16.566l-1.317-.783-.534.925 1.317.783.534-.925zM5.268 18.275l-1.317-.782-.534.925 1.317.782.534-.925zM26.691 12.152v-1.068h-1.068v1.068h1.068z"/><path d="m26.258 21.025-5.373 9.147c-.882 1.502-2.836 2.017-4.364 1.149l-8.333-4.729a3.11 3.11 0 0 1-1.169-4.29l5.375-9.152 5.61-9.145c.899-1.465 2.826-1.954 4.333-1.098l8.065 4.577a3.111 3.111 0 0 1 1.184 4.264l-5.329 9.275zm-6.295 8.624 5.37-9.143 5.326-9.271c.575-1 .222-2.268-.79-2.842l-8.065-4.577a2.151 2.151 0 0 0-2.889.732l-5.604 9.136-5.37 9.143a2.074 2.074 0 0 0 .78 2.86l8.333 4.729c1.019.578 2.321.235 2.909-.766z"/><path d="M15.406 30.09a.538.538 0 0 1-.727.192L4.532 24.523a2.593 2.593 0 0 1-.953-3.611L15.218 1.816C15.965.59 17.574.18 18.833.895l5.266 2.988c.255.145.342.465.195.715s-.473.336-.727.192l-5.266-2.988a1.612 1.612 0 0 0-2.169.553L4.493 21.451a1.556 1.556 0 0 0 .572 2.167l10.147 5.759a.519.519 0 0 1 .195.715z"/><path d="m10.166 24.553 2.126 1.235-.537.923-2.125-1.235a1.958 1.958 0 0 1-.712-2.672l2.154-3.732.93-1.443.898.579-.915 1.421-2.141 3.709a.89.89 0 0 0 .324 1.215z"/><path fill="#e67861" style="fill:var(--color3,#e67861)" d="m26.654 16.55-4.058 6.978-.923-.537 4.058-6.978.923.537zM21.885 6.003l-.801-.423a.89.89 0 0 0-1.185.339l-3.498 6.004-.923-.538 3.498-6.004a1.958 1.958 0 0 1 2.606-.746l.801.423-.499.944z"/><path d="m20.267 25.286-1.945 3.369-4.736-2.053 2.535-4.39 4.146 3.074zm-4.016-4.307a.564.564 0 0 0-.771.206l-3.104 5.375a.564.564 0 0 0 .207.771l5.666 2.457c.27.156.615.064.771-.206l2.398-4.154a.564.564 0 0 0-.207-.771l-4.961-3.678zM5.46 5.797l2.963-4.783A.563.563 0 0 1 9.2.833l5.438 2.645a.563.563 0 0 1 .181.777l-3.566 5.981a.563.563 0 0 1-.777.181L5.641 6.575a.563.563 0 0 1-.181-.777zm5.179 3.385 2.987-5.009L9.09 1.967l-2.484 4.01 4.033 3.205z"/><path fill="#e67861" style="fill:var(--color3,#e67861)" d="m19.886 19.051-6.087-2.712 2.565-4.463 5.46 4.048-1.938 3.127zm3.042-2.881a.69.69 0 0 0-.253-.944l-6.078-4.507a.69.69 0 0 0-.944.253l-2.988 5.199a.69.69 0 0 0 .253.944l6.768 3.016a.69.69 0 0 0 .944-.253l2.298-3.707zM26.721 13.995l-6.087-2.712 2.565-4.463 5.46 4.048-1.938 3.127zm3.042-2.881a.69.69 0 0 0-.253-.944l-6.078-4.507a.69.69 0 0 0-.944.253L19.5 11.115a.69.69 0 0 0 .253.944l6.768 3.016a.69.69 0 0 0 .944-.253l2.298-3.708zM18.06 26.323a.75.75 0 1 1-1.298-.751.75.75 0 0 1 1.298.751zm-1.558 1.2c.868.501 1.982.203 2.483-.665s.203-1.982-.665-2.483c-.868-.501-1.982-.203-2.483.665s-.203 1.982.665 2.483z"/></symbol><symbol id="aktuators" viewBox="0 0 32 32"><path d="m14.24 25.483-.112 1.063-6.747-.71a1.104 1.104 0 0 1-1.072-1.104v-1.568c0-.6.477-1.087 1.072-1.104l6.747-.71.112 1.063-6.827.716a.036.036 0 0 0-.036.036v1.568c0 .02.016.036.036.036h.028l6.798.716z"/><path d="M1.069 22.043v3.949l5.202.598v-5.145l-5.202.598zm5.7-1.731a.57.57 0 0 1 .57.57v6.272a.57.57 0 0 1-.57.57L.57 27.011a.57.57 0 0 1-.57-.57v-4.846a.57.57 0 0 1 .57-.57l6.199-.713zM23.988 16.962c3.837 0 6.961 3.123 6.961 6.961s-3.124 6.961-6.961 6.961-6.961-3.123-6.961-6.961 3.123-6.961 6.961-6.961zm0-1.069c-4.428 0-8.03 3.602-8.03 8.03s3.602 8.03 8.03 8.03c4.428 0 8.03-3.602 8.03-8.03s-3.602-8.03-8.03-8.03z"/><path d="M24.71 31.418a.535.535 0 0 1-.535.535H21.98c-4.673 0-8.564-3.26-8.564-8.03s3.891-8.03 8.564-8.03h2.063a.535.535 0 1 1 0 1.069H21.98c-4.182 0-7.495 2.876-7.495 6.961s3.313 6.961 7.495 6.961h2.195c.295 0 .535.239.535.535z"/><path d="M24.065 19.803c2.271 0 4.119 1.849 4.119 4.119s-1.849 4.119-4.119 4.119-4.119-1.849-4.119-4.119a4.125 4.125 0 0 1 4.119-4.119zm0-1.069c-2.861 0-5.188 2.327-5.188 5.188s2.327 5.188 5.188 5.188c2.861 0 5.188-2.327 5.188-5.188s-2.327-5.188-5.188-5.188z"/><path fill="#e67861" style="fill:var(--color3,#e67861)" d="M24.828 23.923c0-.42-.343-.763-.763-.763s-.763.343-.763.763.343.763.763.763.763-.343.763-.763zm-.763-1.832a1.833 1.833 0 1 1-1.832 1.832c0-1.011.821-1.832 1.832-1.832zM4.34 23.994c0-.42-.343-.763-.763-.763s-.763.343-.763.763.343.763.763.763.763-.343.763-.763zm-.762-1.832a1.833 1.833 0 1 1-1.832 1.832c0-1.011.821-1.832 1.832-1.832z"/><path d="m17.778 9.59.112 1.063 6.747-.71a1.104 1.104 0 0 0 1.072-1.104V7.271c0-.6-.477-1.087-1.072-1.104l-6.747-.71-.112 1.063 6.827.716c.02 0 .036.016.036.036V8.84c0 .02-.016.036-.036.036h-.028l-6.799.716z"/><path d="M30.949 6.15v3.949l-5.202.598V5.552l5.202.598zm-5.7-1.731a.57.57 0 0 0-.57.57v6.272c0 .315.255.57.57.57l6.199-.713a.57.57 0 0 0 .57-.57V5.702a.57.57 0 0 0-.57-.57l-6.199-.713zM8.03 1.069c-3.837 0-6.961 3.123-6.961 6.961s3.123 6.961 6.961 6.961c3.837 0 6.961-3.123 6.961-6.961S11.868 1.069 8.03 1.069zM8.03 0c4.428 0 8.03 3.602 8.03 8.03s-3.602 8.03-8.03 8.03S0 12.458 0 8.03C0 3.602 3.602 0 8.03 0z"/><path d="M7.308 15.525c0 .295.239.535.535.535h2.195c4.673 0 8.564-3.26 8.564-8.03S14.711 0 10.038 0H7.975a.535.535 0 1 0 0 1.07h2.063c4.182 0 7.495 2.876 7.495 6.961s-3.313 6.961-7.495 6.961H7.843a.534.534 0 0 0-.534.535z"/><path d="M7.953 3.91c-2.271 0-4.119 1.849-4.119 4.119s1.849 4.119 4.119 4.119 4.119-1.849 4.119-4.119A4.125 4.125 0 0 0 7.953 3.91zm0-1.069c2.861 0 5.188 2.327 5.188 5.188s-2.327 5.188-5.188 5.188c-2.861 0-5.188-2.327-5.188-5.188s2.327-5.188 5.188-5.188z"/><path fill="#e67861" style="fill:var(--color3,#e67861)" d="M7.19 8.03c0-.42.343-.763.763-.763s.763.343.763.763-.343.763-.763.763-.763-.343-.763-.763zm.763-1.832A1.833 1.833 0 1 0 9.785 8.03a1.833 1.833 0 0 0-1.832-1.832zM27.678 8.101c0-.42.343-.763.763-.763s.763.343.763.763-.343.763-.763.763-.763-.343-.763-.763zm.762-1.832a1.833 1.833 0 1 0 1.832 1.832 1.833 1.833 0 0 0-1.832-1.832z"/></symbol><symbol id="geometry" viewBox="0 0 32 32"><path d="m18.73 1.596 1.804 3.353-1.423-.394-1.322-2.454a1.99 1.99 0 0 0-3.508 0l-1.318 2.453-1.428.396 1.805-3.354a3.06 3.06 0 0 1 5.39 0zM18.73 30.374l1.804-3.353-1.423.394-1.322 2.454a1.99 1.99 0 0 1-3.508 0l-1.318-2.453-1.428-.396 1.805 3.354a3.058 3.058 0 0 0 5.39 0z"/><path d="M16.042 8.178a1.72 1.72 0 0 0 1.586-1.06 1.716 1.716 0 0 0-2.243-2.243 1.72 1.72 0 0 0-1.06 1.586 1.718 1.718 0 0 0 1.717 1.717zm0-2.289a.565.565 0 0 1 .529.353.577.577 0 0 1-.124.624.572.572 0 1 1-.404-.978z"/><path fill="#e67861" style="fill:var(--color3,#e67861)" d="M16.042 23.75a1.72 1.72 0 0 0-1.586 1.06 1.719 1.719 0 0 0 1.251 2.341 1.719 1.719 0 0 0 2.052-1.684 1.718 1.718 0 0 0-1.717-1.717zm.573 1.718a.565.565 0 0 1-.353.529.577.577 0 0 1-.624-.124.572.572 0 1 1 .978-.404z"/><path fill="#e67861" style="fill:var(--color3,#e67861)" d="M16.042 24.321a1.144 1.144 0 0 0-1.124 1.371 1.144 1.144 0 0 0 .901.901 1.15 1.15 0 0 0 1.371-1.124 1.148 1.148 0 0 0-1.147-1.147zm1.143 1.147a1.14 1.14 0 0 1-.706 1.056 1.147 1.147 0 0 1-1.245-.248 1.14 1.14 0 0 1 .173-1.758 1.14 1.14 0 0 1 1.443.142c.214.215.335.505.335.808zm-2.097-1.428a1.718 1.718 0 1 1 1.907 2.857 1.718 1.718 0 0 1-1.907-2.857zm1.43 1.746a.571.571 0 0 0-.072-.723.571.571 0 1 0-.517.966.57.57 0 0 0 .588-.244zM16.036 22.165a6.058 6.058 0 1 1 0-12.115 6.058 6.058 0 0 1 0 12.115zm0 1.069a7.127 7.127 0 1 0 0-14.254 7.127 7.127 0 0 0 0 14.254z"/><path d="m28.114 7.716-1.095 3.646-.728-1.285.8-2.67a1.99 1.99 0 0 0-2.48-2.48l-2.667.803-1.29-.73 3.648-1.095a3.06 3.06 0 0 1 3.811 3.811zM7.765 28.065l3.646-1.095-1.285-.728-2.67.8a1.99 1.99 0 0 1-2.48-2.48l.803-2.667-.73-1.29-1.095 3.648a3.06 3.06 0 0 0 3.811 3.811z"/><path fill="#e67861" style="fill:var(--color3,#e67861)" d="M21.681 10.519a1.716 1.716 0 0 0 2.931-1.214 1.72 1.72 0 0 0-1.06-1.586 1.719 1.719 0 0 0-1.871.372 1.718 1.718 0 0 0 0 2.428zM23.3 8.9c.08.08.134.182.157.293s.011.226-.033.331a.57.57 0 0 1-.847.257.577.577 0 0 1-.244-.588.572.572 0 0 1 .967-.293z"/><path fill="#e67861" style="fill:var(--color3,#e67861)" d="M22.084 10.116a1.148 1.148 0 0 0 1.765-1.447 1.143 1.143 0 0 0-1.178-.487 1.144 1.144 0 0 0-.923 1.125c0 .304.121.596.336.811zm1.619-1.619a1.14 1.14 0 0 1-.173 1.758 1.14 1.14 0 0 1-1.691-.513 1.138 1.138 0 0 1 .248-1.245 1.144 1.144 0 0 1 1.616 0zm-1.143 2.492a1.716 1.716 0 0 1-.879-2.898 1.716 1.716 0 0 1 2.931 1.214 1.72 1.72 0 0 1-1.06 1.586c-.314.13-.659.164-.992.098zm.897-1.796a.572.572 0 1 0-1.123.224.572.572 0 0 0 1.123-.224z"/><path d="M10.62 21.581a1.716 1.716 0 0 0-2.931 1.214 1.72 1.72 0 0 0 1.06 1.586 1.719 1.719 0 0 0 1.871-.372 1.718 1.718 0 0 0 0-2.428zM9.81 23.2a.572.572 0 1 1-.81-.809.572.572 0 0 1 .81.809z"/><path d="m6.445 26.301-.756-.756 2.822-2.822.756.756-2.822 2.822zM24.304 28.065l-3.646-1.095 1.285-.728 2.67.8a1.99 1.99 0 0 0 2.48-2.48l-.803-2.667.73-1.29 1.095 3.648a3.06 3.06 0 0 1-3.811 3.811zM3.954 7.716l1.095 3.646.727-1.285-.8-2.67a1.99 1.99 0 0 1 2.48-2.48l2.667.803 1.29-.73-3.648-1.095a3.06 3.06 0 0 0-3.811 3.811z"/><path d="M21.5 21.633a1.716 1.716 0 0 0 1.214 2.931 1.72 1.72 0 0 0 1.586-1.06 1.719 1.719 0 0 0-.372-1.871 1.718 1.718 0 0 0-2.428 0zm1.619 1.619a.572.572 0 1 1-.81-.809.572.572 0 0 1 .81.809z"/><path fill="#e67861" style="fill:var(--color3,#e67861)" d="M10.439 10.571A1.716 1.716 0 0 0 9.225 7.64 1.72 1.72 0 0 0 7.639 8.7a1.719 1.719 0 0 0 .372 1.871 1.718 1.718 0 0 0 2.428 0zm-1.619-.81a.572.572 0 1 1 .809-.81.572.572 0 0 1-.809.81z"/><path fill="#e67861" style="fill:var(--color3,#e67861)" d="M10.036 10.168a1.148 1.148 0 0 0-1.447-1.765 1.148 1.148 0 1 0 1.449 1.765zm-1.619-.003a1.14 1.14 0 0 1 .173-1.758 1.14 1.14 0 0 1 1.691.513 1.138 1.138 0 0 1-.248 1.245 1.144 1.144 0 0 1-1.616 0zm2.492-.473a1.716 1.716 0 0 1-2.898.879A1.716 1.716 0 0 1 9.225 7.64a1.72 1.72 0 0 1 1.586 1.06c.13.314.164.659.098.992zm-2.246-.224a.572.572 0 1 0 1.123-.224.572.572 0 0 0-1.123.224z"/><path d="m22.853 23.53.756-.756 2.822 2.822-.756.756-2.822-2.822zM30.424 18.68l-3.353 1.804.394-1.423 2.454-1.322a1.99 1.99 0 0 0 0-3.508l-2.453-1.318-.396-1.428 3.354 1.805a3.058 3.058 0 0 1 0 5.39zM1.646 18.68l3.353 1.804-.394-1.423-2.454-1.322a1.99 1.99 0 0 1 0-3.508l2.453-1.318L5 11.485 1.646 13.29a3.06 3.06 0 0 0 0 5.39z"/><path d="M23.893 16.113a1.72 1.72 0 0 0 1.06 1.586 1.719 1.719 0 0 0 2.341-1.251 1.719 1.719 0 0 0-1.684-2.052 1.718 1.718 0 0 0-1.717 1.717zm2.29 0a.571.571 0 1 1-.167-.404.571.571 0 0 1 .168.405zM8.249 16.113a1.72 1.72 0 0 0-1.06-1.586 1.719 1.719 0 0 0-2.341 1.251 1.719 1.719 0 0 0 1.684 2.052 1.718 1.718 0 0 0 1.717-1.717zm-1.717.573a.565.565 0 0 1-.529-.353.577.577 0 0 1 .124-.624.572.572 0 1 1 .404.978z"/><path d="M1.96 16.499V15.43h3.991v1.069H1.96zM26.192 16.499V15.43h3.991v1.069h-3.991z"/><path d="M16.036 4.312C9.6 4.312 4.383 9.529 4.383 15.965S9.6 27.618 16.036 27.618c6.435 0 11.653-5.217 11.653-11.653S22.472 4.312 16.036 4.312zM3.314 15.965c0-7.026 5.696-12.722 12.722-12.722s12.722 5.696 12.722 12.722-5.696 12.722-12.722 12.722S3.314 22.991 3.314 15.965z"/><path d="M15.537 1.853h1.069v3.991h-1.069V1.853z"/></symbol><symbol id="cartridge" viewBox="0 0 32 32"><path d="M19.284 8.179a1.247 1.247 0 0 1 1.847-.021l5.187 5.588a.875.875 0 0 1 .191.304c.092.263.095.623.069.907a2.86 2.86 0 0 1-.079.462c-.037.14-.094.306-.189.447-.052.077-.109.135-.139.166l-.022.022-.017.017-.009.01-.002.003-.001.001-10.341 12.266-.011.015-.015.021-.02.029a1.14 1.14 0 0 1-.16.188c-.215.196-.527.296-.756.346-.247.055-.53.081-.764.054a.96.96 0 0 1-.493-.221l-6.27-5.129a1.247 1.247 0 0 1-.143-1.793L19.283 8.179zm1.063.707a.178.178 0 0 0-.264.003L7.947 22.571a.178.178 0 0 0 .02.256l6.258 5.119a1.545 1.545 0 0 0 .564-.101c.031-.013.049-.023.058-.028l.008-.011.007-.01.01-.014.023-.032a1.04 1.04 0 0 1 .067-.087l10.341-12.266c.024-.029.048-.054.066-.072l.025-.025.005-.005.014-.014.013-.013a.602.602 0 0 0 .04-.117 2.09 2.09 0 0 0 .056-.594.883.883 0 0 0-.011-.109l-5.162-5.561zm5.122 12.88 1.013-.343.789 2.33 2.459.378-.163 1.057-3.1-.477-.998-2.944zm-1.601 2.21 1.013-.343.613 1.808 3.044.587-.202 1.05-3.655-.704-.813-2.397zm-1.705 2.117 1.002-.373.69 1.851h3.513v1.069h-4.255l-.949-2.546zM24.158 1.025a.536.536 0 0 1 .046.755L1.54 27.366a.536.536 0 0 1-.801-.709L23.403 1.071a.536.536 0 0 1 .755-.046z"/><path fill="#e67861" style="fill:var(--color3,#e67861)" d="M18.878 17.509c-.627-1.031-1.978-1.359-3.009-.732s-1.359 1.978-.732 3.009 1.978 1.359 3.009.732 1.359-1.978.732-3.009zm-3.564-1.645c1.535-.934 3.544-.446 4.478 1.089s.446 3.544-1.089 4.478c-1.535.934-3.544.446-4.478-1.089s-.446-3.544 1.089-4.478z"/><path d="M25.254 18.105c.699-.818 2.036-.426 2.184.64l.251 1.814-1.059.146-.251-1.814a.178.178 0 0 0-.312-.091l-7.661 8.961a.178.178 0 0 0 .156.293l2.473-.286.123 1.062-2.473.286c-1.126.13-1.828-1.188-1.091-2.049l7.661-8.961zM4.069 5.554 6.72 6.808l.457-.966-2.651-1.254-.007-.004a.658.658 0 0 0-.023-.013l-.009-.006a.997.997 0 0 0-1.331.194L1.47 6.761a.998.998 0 0 0 .114 1.379l2.096 2.184.771-.74-2.109-2.199 1.6-1.9.005.003c.027.016.071.042.122.066z"/><path d="m27.129 19.78 2.377 2.037.563 3.778-3.942 4.908h-4.236l-1.551-2.696 6.788-8.028zm.121 1.512-5.609 6.633.868 1.509h3.105l3.328-4.144-.435-2.921-1.257-1.077z"/><path fill="#e67861" style="fill:var(--color3,#e67861)" d="m28.402 30.76-.821-.685 2.558-3.064.821.685-2.558 3.064zM.678 6.956l-.821-.685 2.557-3.064.821.685L.677 6.956z"/><path d="m14.516 3.166 2.89 3.655L6.344 19.678l-.75.75-3.313-.654-1.167-4.265 1.657-.308-.072-3.402 1.913-.144.071-2.461 2.11-.148.612-2.952h2.007l.52-2.219 4.584-.708zm-4.007 2.928h2.703l-.214 4.209 3.021-3.511-1.957-2.474-3.256.503-.298 1.273zm1.44 5.429-.082-.004.221-4.356H8.275l-.376 1.816 2.425-.133.354 4.155 1.271-1.478zm-2.167 2.52-.087.007-.348-4.08-2.079.114-1.544.108-.04 1.383 1.831-.133.918 4.169 1.35-1.569zM7.56 16.624l-.891-4.049-1.499.109-1.382.104.046 2.183 1.713-.403.713 3.566 1.3-1.511zm-2.189 2.514-.655-3.275-1.292.304-.974.181.686 2.506 2.104.415.131-.131z"/></symbol><symbol id="power" viewBox="0 0 32 32"><path d="M30.933 0v1.6H16a14.31 14.31 0 0 0-6.487 1.55L5.867 2.055a3.06 3.06 0 0 0-3.811 3.811l1.095 3.648a14.288 14.288 0 0 0-1.55 6.485c0 .16.007.316.012.474-.005.02-.01.04-.012.06v14.4h-1.6V32h10.667v-1.067h-1.6v-2.317a14.355 14.355 0 0 0 13.42.234l3.646 1.095a3.06 3.06 0 0 0 3.811-3.811l-1.095-3.648a14.288 14.288 0 0 0 1.55-6.485 14.466 14.466 0 0 0-1.25-5.867h1.783v1.6H32V.001h-1.067zM3.078 5.558a1.99 1.99 0 0 1 2.48-2.48l2.67.8c-.082.053-.16.107-.239.16l-.075.051a14.334 14.334 0 0 0-3.823 3.823l-.051.075c-.053.08-.11.16-.16.239l-.803-2.667zM8 30.933H2.667v-1.067H8v1.067zM2.667 28.8v-7.369c.132.323.276.641.431.954l.023.044c.142.284.294.565.457.841.019.031.036.063.053.094.161.27.331.534.509.792.044.064.091.127.136.191.142.201.29.397.444.59.053.065.101.131.153.195.179.218.365.427.556.635.081.087.164.173.247.259a13.731 13.731 0 0 0 .756.725 13.323 13.323 0 0 0 .827.683c.227.174.458.343.693.504l.045.033.003.83H2.667zm26.255-2.358a1.99 1.99 0 0 1-2.48 2.48l-2.67-.8c.082-.053.16-.107.239-.16l.075-.051a14.334 14.334 0 0 0 3.823-3.823l.051-.075c.053-.08.11-.16.16-.239l.803 2.667zM29.333 16a13.252 13.252 0 0 1-1.972 6.97c-.06.098-.124.194-.186.291a13.324 13.324 0 0 1-.688.959c-.076.098-.152.195-.231.291-.112.135-.227.268-.344.398l-.16.172c-.216.231-.439.455-.67.67l-.172.16c-.131.117-.263.232-.398.344-.095.079-.193.155-.291.231-.18.142-.363.279-.55.41-.134.095-.27.188-.409.278-.096.062-.192.126-.291.186a13.295 13.295 0 0 1-14.624-.454c-.094-.066-.188-.131-.28-.199-.111-.083-.218-.168-.326-.253a14.444 14.444 0 0 1-.486-.404c-.084-.074-.17-.147-.253-.222a12.47 12.47 0 0 1-.287-.274 12.687 12.687 0 0 1-.5-.51c-.082-.089-.16-.18-.242-.271s-.153-.173-.227-.262c-.147-.177-.29-.356-.427-.54-.03-.04-.058-.082-.087-.122-.118-.16-.234-.326-.345-.493-.036-.053-.07-.11-.107-.165a10.577 10.577 0 0 1-.303-.495l-.08-.139a12.844 12.844 0 0 1-.327-.613l-.015-.032a13.283 13.283 0 0 1-1.373-5.398 12.5 12.5 0 0 1-.013-.513 13.252 13.252 0 0 1 1.972-6.97c.06-.098.124-.194.186-.291a12.259 12.259 0 0 1 .688-.959 11.844 11.844 0 0 1 .576-.689l.16-.172c.215-.231.439-.455.67-.67l.172-.16c.13-.117.263-.232.398-.345.095-.079.193-.155.291-.231.18-.142.363-.279.55-.41.134-.095.27-.188.409-.278.097-.062.193-.126.291-.186a13.252 13.252 0 0 1 6.97-1.972h10.667v6.4h-4.8v.033a9.09 9.09 0 1 0 1.034 1.034h5.067a13.177 13.177 0 0 1 1.366 5.867zM24 16a8 8 0 1 1-8-8 8.01 8.01 0 0 1 8 8zm6.933-6.933h-3.2v-6.4h3.2v6.4z"/><path fill="#e67861" style="fill:var(--color3,#e67861)" d="M22.902 15.39c-.006-.075-.015-.15-.024-.225-.015-.122-.035-.244-.053-.365a6.747 6.747 0 0 0-.091-.432 6.478 6.478 0 0 0-.077-.305l-.005-.016a6.85 6.85 0 0 0-.196-.565c-.01-.026-.018-.053-.029-.078a6.726 6.726 0 0 0-.261-.565l-.022-.046a7.404 7.404 0 0 0-.326-.556l-.017-.027a6.9 6.9 0 0 0-.37-.51c-.013-.014-.022-.029-.033-.042a6.747 6.747 0 0 0-.38-.43l-.076-.083a6.787 6.787 0 0 0-.351-.327c-.053-.046-.101-.096-.155-.141-.094-.078-.194-.149-.291-.222-.085-.064-.167-.131-.255-.191-.077-.053-.16-.098-.238-.147-.107-.066-.207-.135-.315-.194-.008-.005-.017-.008-.025-.012-.043-.023-.089-.042-.132-.064a7.073 7.073 0 0 0-.464-.224c-.067-.029-.137-.053-.205-.078-.139-.053-.276-.107-.418-.153-.081-.026-.164-.044-.246-.067-.133-.037-.267-.075-.401-.103-.092-.02-.186-.032-.278-.048-.128-.021-.255-.044-.384-.059-.107-.012-.217-.017-.326-.024s-.228-.015-.343-.017c-.037 0-.074-.006-.112-.006-.101 0-.201.011-.301.015-.08.004-.16.005-.241.012a6.94 6.94 0 0 0-.524.063l-.117.018a7.294 7.294 0 0 0-.594.131l-.038.008-.019.006a7.056 7.056 0 0 0-.612.2l-.053.018c-.2.078-.395.164-.587.26-.017.008-.033.015-.049.024a6.777 6.777 0 0 0-.545.31l-.06.037a7.127 7.127 0 0 0-.483.342c-.029.022-.059.043-.087.066-.14.111-.273.229-.403.35-.042.038-.084.074-.124.113-.11.107-.213.221-.316.335-.053.06-.107.116-.16.177-.082.098-.16.202-.234.305-.062.082-.127.16-.185.247-.065.094-.121.194-.18.291s-.115.176-.166.267l-.01.021a6.792 6.792 0 0 0-.332.707c-.027.067-.049.134-.074.201a6.517 6.517 0 0 0-.243.798 7.226 7.226 0 0 0-.113.59c-.011.071-.024.141-.032.213A7.022 7.022 0 0 0 9.07 16a6.574 6.574 0 0 0 .055.835c.015.122.035.244.053.365.026.146.057.29.091.432.025.102.048.204.077.305l.005.016c.057.192.124.381.196.566.01.026.018.053.028.077.079.194.167.383.263.569l.02.042c.101.193.211.38.329.561l.013.022c.117.178.242.35.373.517l.026.034c.122.151.252.296.386.437.023.025.045.053.07.077.114.117.236.226.358.334.05.044.097.092.148.134.097.081.2.154.301.23.082.061.16.126.245.184s.165.101.247.152c.102.064.202.131.308.189l.021.01c.229.124.465.234.707.332.067.027.134.049.201.074a6.517 6.517 0 0 0 .798.243c.194.046.391.083.59.113.071.011.141.024.213.032.268.033.539.051.809.053.203 0 .406-.012.61-.031.075-.006.15-.015.225-.024.122-.015.244-.035.365-.053.146-.026.29-.056.432-.091.101-.024.203-.047.304-.077l.016-.005a6.85 6.85 0 0 0 .565-.196c.026-.01.053-.018.078-.029a7.03 7.03 0 0 0 .564-.26l.047-.023a7.074 7.074 0 0 0 1.088-.709c.015-.012.032-.023.046-.035.147-.118.286-.244.422-.373.03-.028.062-.053.092-.084.11-.107.213-.225.317-.34.05-.053.103-.107.151-.166.074-.089.141-.184.213-.277s.139-.177.202-.27c.046-.068.086-.141.131-.213.071-.113.146-.224.213-.342l.01-.021c.124-.229.234-.464.331-.706.027-.067.049-.134.074-.202.071-.186.133-.375.184-.568a6.366 6.366 0 0 0 .172-.819c.011-.07.024-.14.032-.211a7.02 7.02 0 0 0 .049-.807c0-.203-.012-.406-.031-.61zm-3.68-1.883c.024-.03.044-.063.066-.095.037-.053.076-.102.107-.157.023-.037.042-.076.062-.115.028-.053.058-.101.083-.154.019-.041.034-.084.051-.125.022-.053.045-.104.063-.16.014-.042.024-.086.036-.13.015-.053.033-.107.045-.164.01-.044.014-.089.021-.133.01-.056.02-.112.026-.168.004-.046.004-.091.006-.137.003-.056.007-.112.006-.17 0-.046-.006-.092-.01-.139s-.004-.097-.01-.146c.016.013.03.028.046.042a5.706 5.706 0 0 1 .563.557c.332.374.616.79.844 1.235l.034.071c.104.21.195.427.272.649.006.014.014.028.017.043l-.001.007-.535.707a1.607 1.607 0 0 1-1.28.64H17.51c-.009-.026-.021-.05-.031-.075l-.011-.026c-.008-.019-.014-.038-.024-.057l1.573-1.573c.073-.073.141-.15.205-.23zm-3.342-3.368c.152-.003.304 0 .456.011.076.004.154.004.229.012.213.02.425.052.635.096.057.012.111.029.167.043.16.039.32.082.476.134.072.024.142.053.213.078a6.085 6.085 0 0 1 .533.231l.126.882a1.606 1.606 0 0 1-.452 1.357l-1.573 1.573-.057-.024-.026-.011c-.025-.01-.049-.022-.075-.031v-2.507a2.558 2.558 0 0 0-.045-.463c-.007-.043-.017-.085-.027-.127a2.734 2.734 0 0 0-.101-.342c-.013-.035-.023-.069-.037-.103a2.753 2.753 0 0 0-.206-.396c-.017-.026-.037-.05-.053-.076a2.583 2.583 0 0 0-.226-.284c-.014-.015-.025-.034-.039-.05.025 0 .053-.003.081-.003zm-4.325 2.043v.001c.156-.18.322-.35.499-.51.028-.025.053-.053.083-.075a5.953 5.953 0 0 1 1.34-.885l.025-.012c.25-.119.508-.219.772-.301l.309.155c.543.269.886.824.884 1.43v2.507c-.026.009-.05.021-.075.031l-.026.011c-.019.008-.038.014-.057.023l-1.573-1.573a2.72 2.72 0 0 0-.373-.304l-.062-.043a2.607 2.607 0 0 0-.405-.213l-.073-.029a2.632 2.632 0 0 0-.451-.136l-.025-.004a2.576 2.576 0 0 0-.463-.045c-.013 0-.026-.004-.039-.004h-.026c-.069 0-.138.006-.206.013-.033 0-.065 0-.098.006l.039-.042zm-1.303 4.211v.004c-.031.036-.064.07-.093.107a6.029 6.029 0 0 1-.026-.503c.001-.214.013-.427.037-.64.006-.053.017-.107.024-.157.022-.16.047-.32.083-.474.014-.064.033-.126.049-.189.036-.14.076-.28.123-.417.024-.071.051-.142.078-.213a6.13 6.13 0 0 1 .154-.365l.063-.132.882-.126a1.603 1.603 0 0 1 1.357.452l1.573 1.573c-.009.018-.015.037-.023.053l-.012.028c-.01.024-.022.048-.03.074h-2.224c-.103 0-.206.006-.308.018-.036.004-.07.013-.107.019-.066.011-.132.02-.196.035-.04.01-.079.023-.119.035-.058.016-.117.031-.173.053-.041.015-.081.034-.121.053-.053.022-.107.043-.16.069-.041.02-.079.045-.119.067-.049.027-.098.053-.145.083s-.076.053-.115.083c-.038.029-.09.062-.132.098s-.07.064-.107.096c-.037.032-.082.073-.12.112s-.061.069-.092.106zm2.525 2.101v.004c-.02.025-.036.053-.053.078-.042.057-.084.114-.121.174-.02.031-.035.066-.053.098a2.483 2.483 0 0 0-.092.17c-.018.037-.03.076-.046.114-.023.056-.048.112-.068.17-.013.04-.022.081-.034.122-.017.057-.035.114-.047.172-.009.043-.014.086-.021.129-.01.057-.02.114-.026.172-.004.045-.004.09-.006.135 0 .057-.007.114-.006.17 0 .047.006.093.01.14s.004.097.01.145l-.042-.038a5.866 5.866 0 0 1-.48-.466l-.086-.094a5.949 5.949 0 0 1-.843-1.236c-.012-.022-.022-.046-.034-.069a5.874 5.874 0 0 1-.273-.65l-.016-.043.534-.718a1.607 1.607 0 0 1 1.28-.64h2.224c.009.025.02.049.03.074l.012.028c.008.018.014.037.023.053l-1.573 1.573a2.823 2.823 0 0 0-.205.233zm3.628 3.352-.001.004a5.527 5.527 0 0 1-.59.011c-.075 0-.15-.006-.224-.011a5.753 5.753 0 0 1-.57-.068c-.047-.008-.095-.012-.141-.021a5.875 5.875 0 0 1-.693-.18c-.047-.015-.093-.035-.14-.053a5.814 5.814 0 0 1-.636-.269l-.125-.884a1.606 1.606 0 0 1 .452-1.357l1.573-1.573.057.024.025.01c.025.01.049.022.075.031v2.225c0 .103.006.206.018.308.004.036.013.071.019.107.011.066.02.131.035.196.01.041.024.081.036.121.017.058.031.115.053.172.015.041.035.081.053.122.022.053.043.107.069.16.02.041.045.079.067.119.027.049.053.099.083.146s.053.077.083.115c.03.038.062.089.097.131s.065.071.097.107c.033.036.072.082.112.119s.072.063.107.094.07.064.107.093c-.032.001-.065.001-.096.003zm.087-5.639a.567.567 0 0 1-.065.097.552.552 0 0 1-.123.123.567.567 0 0 1-.097.065.538.538 0 0 1-.413 0 .567.567 0 0 1-.097-.065.53.53 0 0 1-.115-.112.536.536 0 0 1-.074-.107.538.538 0 0 1 0-.413.557.557 0 0 1 .074-.112v.001a.505.505 0 0 1 .115-.111.567.567 0 0 1 .097-.065.538.538 0 0 1 .413 0c.034.018.067.04.097.065a.532.532 0 0 1 .123.123c.025.03.047.063.065.097a.538.538 0 0 1 0 .413zm3.948 3.615-.001.004a5.706 5.706 0 0 1-.557.563c-.374.33-.788.611-1.232.837l-.071.034c-.21.104-.427.195-.649.272l-.043.016-.714-.535a1.607 1.607 0 0 1-.64-1.28v-2.224c.026-.009.05-.021.075-.031l.026-.011c.019-.008.038-.014.057-.024l1.573 1.573c.115.113.24.215.373.305l.059.041c.128.083.264.154.405.213.024.011.048.02.073.03a2.748 2.748 0 0 0 .492.141c.154.029.31.045.467.046h.031c.107 0 .214-.007.32-.02-.013.018-.028.033-.042.048zm1.389-3.176c-.006.053-.017.107-.025.16-.022.16-.047.315-.082.47-.014.065-.033.129-.05.193a5.425 5.425 0 0 1-.122.413c-.024.073-.053.144-.079.213a6.06 6.06 0 0 1-.153.363l-.064.133-.882.126a1.609 1.609 0 0 1-1.357-.452l-1.573-1.573c.009-.019.015-.038.023-.056l.011-.026c.01-.025.022-.049.031-.075h2.225c.103 0 .206-.006.308-.018.036-.004.071-.013.107-.019.066-.011.131-.02.196-.035.041-.01.081-.024.121-.036.058-.017.115-.032.172-.053.041-.015.081-.035.122-.053.053-.022.107-.043.16-.069.041-.02.079-.045.119-.067.049-.027.099-.053.146-.083s.077-.053.115-.083c.038-.03.089-.062.131-.096s.071-.065.107-.097c.036-.032.082-.072.119-.111s.061-.07.092-.107l-.001.006c.031-.036.064-.07.093-.107.014.165.026.331.026.5a5.955 5.955 0 0 1-.037.64z"/><path d="M5.333 4.267H4.266v1.067h1.067V4.267zM27.733 26.667h-1.067v1.067h1.067v-1.067zM3.733 16H4.8C4.807 9.817 9.817 4.807 16 4.8V3.733C9.228 3.741 3.741 9.228 3.733 16zM18.133 3.733h-1.067V4.8h1.067V3.733z"/></symbol><symbol id="arrow-big-bottom" viewBox="0 0 58 32"><path d="M56.735 3.597A2 2 0 1 0 53.907.769L29.179 25.497 4.451.769a2 2 0 1 0-2.828 2.828l26.142 26.142a2 2 0 0 0 2.829 0L56.736 3.597z"/></symbol><symbol id="arrow-big-top" viewBox="0 0 58 32"><path d="M56.735 26.769a2 2 0 0 1-2.828 2.829L29.179 4.87 4.451 29.598a2 2 0 1 1-2.828-2.829L27.765.627a2 2 0 0 1 2.829 0l26.142 26.142z"/></symbol><symbol id="path" viewBox="0 0 48 32"><path d="M46.521 5.794a3.395 3.395 0 0 0-4.8-4.8L23.757 18.958 5.793.994a3.395 3.395 0 0 0-4.8 4.8l20.364 20.364a3.395 3.395 0 0 0 4.8 0L46.521 5.794z"/></symbol><symbol id="arrow" viewBox="0 0 21 32"><path d="M3.863.663a2.262 2.262 0 1 0-3.2 3.2l11.976 11.976L.663 27.815a2.262 2.262 0 1 0 3.2 3.2l13.576-13.576a2.262 2.262 0 0 0 0-3.2L3.863.663z"/></symbol><symbol id="check" viewBox="0 0 32 32"><path fill="#219653" style="fill:var(--color4,#219653)" d="M16.116 19.169 29.239 4.766l1.732 1.578-14.735 16.173-8.033-7.636 1.615-1.699 6.297 5.987zm13.945-8.385-1.828 2.012a12.65 12.65 0 0 1 .407 3.188c0 6.979-5.678 12.656-12.656 12.656S3.328 22.962 3.328 15.984 9.006 3.328 15.984 3.328c3.233 0 6.186 1.219 8.426 3.221l1.58-1.74A14.891 14.891 0 0 0 15.984.984c-4.007 0-7.774 1.56-10.607 4.393S.984 11.977.984 15.984s1.56 7.774 4.393 10.607c2.833 2.833 6.6 4.393 10.607 4.393s7.774-1.56 10.607-4.393a14.902 14.902 0 0 0 4.393-10.607 15 15 0 0 0-.923-5.2z"/></symbol><symbol id="credit-card" viewBox="0 0 32 32"><path fill="#219653" style="fill:var(--color4,#219653)" d="M30.399 21.127h-3.071l-.862 6.504a1.612 1.612 0 0 1-1.8 1.374L1.39 25.92a1.604 1.604 0 0 1-1.376-1.801L1.978 9.308a1.6 1.6 0 0 1 1.795-1.379l1.542.203V4.583c0-.884.717-1.601 1.601-1.601h23.482c.884 0 1.601.717 1.601 1.601v14.943c0 .884-.717 1.601-1.601 1.601zm-4.147 0h-4.168l4.096.543.072-.543zm-25.18 3.137a.52.52 0 0 0 .106.391.535.535 0 0 0 .355.208l23.272 3.084a.542.542 0 0 0 .604-.459l.211-1.589-24.336-3.227-.211 1.592zM5.315 9.208l-1.679-.222a.533.533 0 0 0-.599.459l-1.191 8.997 3.469.458V9.207zm.071 10.779-3.682-.486-.28 2.111L25.76 24.84l.16-1.223.119-.888-12.077-1.601H6.917a1.6 1.6 0 0 1-1.531-1.14zM30.932 4.583a.534.534 0 0 0-.534-.534H6.916a.534.534 0 0 0-.534.534V19.51l.003.016c0 .295.239.534.534.534h23.48a.534.534 0 0 0 .534-.534V4.583z"/><path fill="#219653" style="fill:var(--color4,#219653)" d="M23.432 13.11c.215.158.404.348.562.563a2.665 2.665 0 0 1 4.278 3.177 2.66 2.66 0 0 1-4.277-.009 2.669 2.669 0 1 1-.563-3.732zm2.697 3.748a1.601 1.601 0 1 0 0-3.203 1.601 1.601 0 0 0 0 3.203zm-4.269 0a1.601 1.601 0 1 0 0-3.203 1.601 1.601 0 0 0 0 3.203zM9.585 17.392H8.518v-1.068h1.067v1.068zM17.057 17.392h-6.404v-1.068h6.404v1.068zM17.057 15.257H8.518V14.19h8.539v1.067zM28.264 10.454H9.051a.534.534 0 0 1-.534-.534V6.718c0-.295.239-.534.534-.534h19.213c.295 0 .534.239.534.534V9.92a.534.534 0 0 1-.534.534zm-.533-3.203H9.586v2.135h18.145V7.251z"/></symbol><symbol id="delivery" viewBox="0 0 32 32"><path fill="#219653" style="fill:var(--color4,#219653)" d="M26.667 17.618V7.334a.642.642 0 0 0-.105-.337l.01-.006-4-6.667A.665.665 0 0 0 22 0H4.667a.668.668 0 0 0-.572.324l-4 6.667.01.006A.642.642 0 0 0 0 7.334v18.667c0 .368.298.667.667.667h16.951c.874 3.073 3.7 5.333 7.049 5.333 4.044 0 7.333-3.29 7.333-7.333 0-3.35-2.26-6.176-5.333-7.049zM21.622 1.333l3.2 5.333h-7.609l-1.067-5.333h5.476zm-9.742 0h2.908l1.077 5.333h-5.052l1.067-5.333zM16 8v2.667h-5.335L10.656 8h5.345zM5.044 1.333h5.477L9.465 6.666H1.844l3.2-5.333zm12.323 24H1.333V8h8v3.333c0 .368.298.667.667.667h6.667a.667.667 0 0 0 .667-.667L17.323 8h8.01v9.367a7.354 7.354 0 0 0-.667-.034c-4.044 0-7.333 3.29-7.333 7.333 0 .225.014.447.034.667zm7.3 5.334c-3.309 0-6-2.692-6-6s2.691-6 6-6c3.308 0 6 2.691 6 6s-2.692 6-6 6z"/><path fill="#219653" style="fill:var(--color4,#219653)" d="m27.529 22.195-4.195 4.195-1.529-1.529a.668.668 0 0 0-.943.943l2 2a.665.665 0 0 0 .942 0l4.667-4.667a.668.668 0 0 0-.943-.943z"/></symbol><symbol id="shield" viewBox="0 0 32 32"><path fill="#219653" style="fill:var(--color4,#219653)" d="m29.593 8.682-.001-.025a34.384 34.384 0 0 1-.029-.994 3.39 3.39 0 0 0-3.193-3.322c-3.679-.205-6.525-1.405-8.957-3.775l-.021-.02a2.048 2.048 0 0 0-2.783 0l-.021.02c-2.432 2.37-5.278 3.57-8.957 3.776a3.39 3.39 0 0 0-3.193 3.322c-.005.359-.015.685-.029.994l-.001.058c-.072 3.752-.16 8.421 1.402 12.659.859 2.331 2.16 4.356 3.866 6.022 1.943 1.896 4.489 3.402 7.565 4.475a2.283 2.283 0 0 0 .76.129 2.282 2.282 0 0 0 .761-.13c3.073-1.075 5.616-2.581 7.557-4.477 1.705-1.666 3.006-3.692 3.866-6.023 1.568-4.251 1.479-8.929 1.408-12.688zm-3.17 12.038c-1.647 4.467-5.01 7.534-10.281 9.378a.417.417 0 0 1-.284 0c-5.276-1.84-8.642-4.906-10.288-9.373-1.44-3.907-1.358-8.193-1.286-11.974V8.73c.015-.325.024-.665.03-1.039a1.507 1.507 0 0 1 1.421-1.475c2.082-.116 3.911-.519 5.592-1.23 1.678-.71 3.169-1.712 4.557-3.062a.172.172 0 0 1 .232 0c1.388 1.35 2.879 2.351 4.557 3.062 1.681.711 3.51 1.114 5.592 1.23a1.507 1.507 0 0 1 1.42 1.476c.006.376.015.716.03 1.039.072 3.786.151 8.075-1.292 11.99z"/><path fill="#219653" style="fill:var(--color4,#219653)" d="M16 8.026c-4.397 0-7.975 3.578-7.975 7.975s3.577 7.975 7.975 7.975c4.397 0 7.975-3.578 7.975-7.975S20.397 8.026 16 8.026zm0 14.072c-3.362 0-6.097-2.735-6.097-6.097S12.638 9.904 16 9.904c3.362 0 6.097 2.735 6.097 6.097S19.362 22.098 16 22.098z"/><path fill="#219653" style="fill:var(--color4,#219653)" d="m18.292 13.525-3.704 3.704-1.005-1.005a.939.939 0 1 0-1.328 1.328l1.669 1.669a.937.937 0 0 0 1.328 0l4.368-4.368a.939.939 0 1 0-1.328-1.328z"/></symbol><symbol id="call" viewBox="0 0 32 32"><path d="m31.16 24.686-6.477-4.319a1.89 1.89 0 0 0-2.531.411l-1.887 2.426a.807.807 0 0 1-1.034.218l-.359-.198c-1.19-.648-2.67-1.456-5.652-4.439s-3.791-4.465-4.44-5.652l-.197-.359a.807.807 0 0 1 .213-1.038L11.22 9.85a1.89 1.89 0 0 0 .412-2.531L7.313.842A1.88 1.88 0 0 0 4.778.271L2.07 1.898A3.822 3.822 0 0 0 .328 4.159c-.975 3.554-.242 9.687 8.793 18.722C16.308 30.067 21.658 32 25.335 32a9.468 9.468 0 0 0 2.506-.327 3.815 3.815 0 0 0 2.261-1.742l1.628-2.707a1.88 1.88 0 0 0-.57-2.536zm-.348 1.989-1.625 2.708a2.761 2.761 0 0 1-1.626 1.261c-3.281.901-9.012.155-17.685-8.519S.457 7.721 1.357 4.44a2.765 2.765 0 0 1 1.262-1.629l2.708-1.625a.816.816 0 0 1 1.1.247l4.316 6.476a.822.822 0 0 1-.178 1.099L8.14 10.894a1.865 1.865 0 0 0-.494 2.395l.193.35c.682 1.25 1.529 2.805 4.622 5.898s4.648 3.94 5.897 4.622l.35.193c.81.454 1.831.244 2.395-.494l1.886-2.425a.82.82 0 0 1 1.098-.178l6.476 4.319a.814.814 0 0 1 .247 1.1zM18.132 5.336c5.004.006 9.06 4.061 9.065 9.065a.533.533 0 0 0 1.066 0c-.006-5.593-4.539-10.126-10.132-10.132a.533.533 0 0 0 0 1.066z"/><path d="M18.132 8.536a5.873 5.873 0 0 1 5.866 5.866.533.533 0 0 0 1.066 0 6.94 6.94 0 0 0-6.932-6.932.533.533 0 0 0 0 1.066z"/><path d="M18.132 11.735a2.67 2.67 0 0 1 2.666 2.666.533.533 0 0 0 1.066 0 3.737 3.737 0 0 0-3.733-3.733.533.533 0 0 0 0 1.066z"/></symbol><symbol id="user" viewBox="0 0 32 32"><path d="M31.989 15.371a.67.67 0 0 0-.704-.656.68.68 0 0 0-.656.704c.142 4.038-1.32 7.856-4.115 10.751a14.502 14.502 0 0 1-10.517 4.47.68.68 0 1 0 0 1.361c4.371 0 8.454-1.735 11.496-4.885 3.054-3.162 4.65-7.333 4.496-11.744z"/><path d="M31.983 15.691c-.084-4.386-1.912-8.451-5.146-11.445-6.089-5.662-15.628-5.662-21.718 0C1.898 7.244.081 11.31.003 15.695s1.587 8.51 4.691 11.613a.684.684 0 0 0 .975-.014c.188-.198.418-.436.51-.523a.647.647 0 0 0 .09-.076l1.502-1.502h4.89c.566 0 1.065-.341 1.272-.869a1.319 1.319 0 0 0-.314-1.45 6.926 6.926 0 0 1-2.046-4.929v-5.852c0-.595.225-1.134.651-1.56a2.225 2.225 0 0 1 1.56-.651h4.39c.595 0 1.134.225 1.56.652.414.413.651.982.651 1.56v5.853c0 1.859-.727 3.61-2.067 4.951a1.37 1.37 0 0 0-.229 1.482 1.34 1.34 0 0 0 1.241.815h5.172a.68.68 0 1 0 0-1.361l-5.161.008a.061.061 0 0 1-.011-.032 8.277 8.277 0 0 0 2.416-5.863v-5.852c0-.936-.383-1.856-1.05-2.523a3.547 3.547 0 0 0-2.523-1.05h-4.389c-.936 0-1.856.383-2.523 1.05a3.547 3.547 0 0 0-1.05 2.523v5.852c0 2.222.868 4.315 2.45 5.887H7.489a.682.682 0 0 0-.481.199l-1.691 1.691a3.286 3.286 0 0 0-.137.123A14.521 14.521 0 0 1 1.365 15.72C1.437 11.708 3.1 7.986 6.048 5.243 11.617.065 20.342.065 25.913 5.244c2.961 2.742 4.634 6.461 4.711 10.473s-1.445 7.787-4.288 10.63a.68.68 0 1 0 .962.962c3.106-3.106 4.77-7.232 4.686-11.618z"/></symbol><symbol id="shop-card" viewBox="0 0 34 32"><path d="M34.143 4.857c-.143-.143-.286-.286-.571-.286H6.429L5.715.857c0-.286-.429-.571-.714-.571H.715C.287.286.001.572.001 1s.286.714.714.714h3.714l3.429 17.429c.429 2.286 2.571 4 4.857 4h16.429c.429 0 .714-.286.714-.714s-.286-.714-.714-.714H12.858c-1.143 0-2.286-.571-2.857-1.572l20.857-2.857c.286 0 .571-.286.571-.571l2.857-11.429s0-.286-.143-.429zm-4 11.143L9.286 18.714 6.715 5.857h25.857L30.143 16zM12.143 24.571c-2 0-3.571 1.571-3.571 3.571s1.571 3.571 3.571 3.571 3.571-1.572 3.571-3.571-1.571-3.571-3.571-3.571zm0 5.715c-1.143 0-2.143-1-2.143-2.143S11 26 12.143 26c1.143 0 2.143 1 2.143 2.143s-1 2.143-2.143 2.143zM26.429 24.571c-2 0-3.571 1.571-3.571 3.571s1.571 3.571 3.571 3.571S30 30.141 30 28.142s-1.571-3.571-3.571-3.571zm0 5.715c-1.143 0-2.143-1-2.143-2.143s1-2.143 2.143-2.143c1.143 0 2.143 1 2.143 2.143s-1 2.143-2.143 2.143z"/></symbol><symbol id="heart" viewBox="0 0 32 32"><path d="M31.505 8.348c-1.057-2.865-3.586-4.74-6.6-4.893l-.035-.001h-.442c-3.805 0-7.074 2.343-8.439 5.662-1.365-3.319-4.634-5.662-8.439-5.662h-.442l-.035.001c-3.008.153-5.529 2.029-6.58 4.896-1.085 2.96-.345 6.124 1.927 8.257l11.957 11.309c.467.42 1.057.63 1.642.63a2.36 2.36 0 0 0 1.628-.64l1.818-1.715a2.454 2.454 0 0 0 .727-1.693 2.344 2.344 0 0 0-.693-1.719.68.68 0 1 0-.962.962c.407.408.393 1.061-.02 1.474l-1.805 1.703c-.386.365-1.012.36-1.413 0l-11.946-11.3c-1.87-1.754-2.476-4.358-1.582-6.797.858-2.341 2.908-3.874 5.354-4.005h.425c4.278 0 7.759 3.481 7.759 7.759a.681.681 0 0 0 1.362 0c0-4.278 3.48-7.759 7.759-7.759h.425c2.454.131 4.513 1.664 5.376 4.004.896 2.43.294 5.035-1.585 6.813l-3.811 3.811c-.458.458-.71 1.057-.71 1.689s.252 1.232.71 1.689a.68.68 0 1 0 .962-.962c-.201-.201-.311-.459-.311-.727s.11-.526.311-.727l3.798-3.798c2.269-2.145 3.002-5.31 1.914-8.259z"/></symbol><symbol id="balance" viewBox="0 0 32 32"><path d="m31.525 18.807-3.65-7.818 1.576.452a.652.652 0 0 0 .359-1.253L18.854 7.044c.002-.047.004-.094.004-.141a2.858 2.858 0 0 0-5.351-1.394L2.55 2.365a.652.652 0 0 0-.359 1.253l2.162.621-3.916 8.387a.653.653 0 0 0-.437.615 5.227 5.227 0 0 0 8.929 3.69 5.163 5.163 0 0 0 1.559-3.689.651.651 0 0 0-.475-.627L6.374 4.82l6.772 1.943c-.002.047-.004.094-.004.141a2.863 2.863 0 0 0 2.206 2.782v15.851c-2.236 0-4.116-.034-4.433.031a2.628 2.628 0 0 0-2.086 2.555v.913a.69.69 0 0 0 .678.668h12.985a.689.689 0 0 0 .678-.668v-.913a2.628 2.628 0 0 0-2.086-2.555c-.219-.065-2.293-.031-4.433-.031V9.686a2.87 2.87 0 0 0 1.842-1.388l7.378 2.117-3.924 8.405a.65.65 0 0 0-.437.615 5.226 5.226 0 0 0 8.93 3.69 5.168 5.168 0 0 0 1.56-3.69.651.651 0 0 0-.475-.627zM5.228 5.415l3.335 7.144H1.892l3.335-7.144zm0 11.72a3.898 3.898 0 0 1-3.87-3.272h7.77a3.954 3.954 0 0 1-3.9 3.272zm16.639 10.987v.276H10.134v-.276c0-.719.611-1.288 1.33-1.288h9.074c.719 0 1.33.569 1.33 1.288zM16 8.458a1.553 1.553 0 0 1-.963-2.776 1.555 1.555 0 0 1 2.474 1.587.636.636 0 0 0-.037.127A1.556 1.556 0 0 1 16 8.459zm14.074 10.293h-6.671l3.335-7.144 3.335 7.144zm-3.335 4.576a3.898 3.898 0 0 1-3.87-3.272h7.77a3.953 3.953 0 0 1-3.9 3.272z"/></symbol><symbol id="menu" viewBox="0 0 40 32"><path fill="none" stroke="#fff" style="stroke:var(--color6,#fff)" stroke-linecap="round" stroke-width="4.174" d="M2.087 2.783h35.478m0 27.13H2.087m0-13.913h21.565"/></symbol><symbol id="logo" viewBox="0 0 89 32"><path fill="#34495e" style="fill:var(--color7,#34495e)" d="M87.23 1.915a5.804 5.804 0 0 0-8.186 0L59.617 21.689a6.134 6.134 0 0 0 0 8.534 5.774 5.774 0 0 0 6.421 1.309 5.8 5.8 0 0 0 1.901-1.309L87.23 10.476a6.164 6.164 0 0 0 0-8.56z"/><path fill="#34495e" style="fill:var(--color7,#34495e)" d="M40.354 1.915A5.796 5.796 0 0 1 44.515.156a5.8 5.8 0 0 1 4.161 1.759l19.29 19.774a6.134 6.134 0 0 1 0 8.534 5.774 5.774 0 0 1-6.421 1.309 5.8 5.8 0 0 1-1.901-1.309l-19.29-19.747a6.133 6.133 0 0 1 0-8.56z"/><path fill="#34495e" style="fill:var(--color7,#34495e)" d="M48.703 1.915A5.792 5.792 0 0 0 44.542.144a5.774 5.774 0 0 0-4.161 1.771l-19.29 19.774a6.134 6.134 0 0 0 0 8.534 5.796 5.796 0 0 0 4.161 1.759 5.8 5.8 0 0 0 4.161-1.759l19.29-19.774a6.134 6.134 0 0 0 0-8.534z"/><path fill="#34495e" style="fill:var(--color7,#34495e)" d="M1.719 1.778A5.796 5.796 0 0 1 5.88.019a5.8 5.8 0 0 1 4.161 1.759l19.29 19.774a6.134 6.134 0 0 1 0 8.534 5.806 5.806 0 0 1-6.419 1.301 5.796 5.796 0 0 1-1.903-1.301L1.719 10.312a6.134 6.134 0 0 1 0-8.534z"/></symbol><symbol id="arrow-outline-up" viewBox="0 0 20 20"><path d="M10 0c5.523 0 10 4.477 10 10s-4.477 10-10 10S0 15.523 0 10 4.477 0 10 0zm0 2a8 8 0 0 0 0 16 8 8 0 0 0 0-16zm2 8v5H8v-5H5l5-5 5 5h-3z"/></symbol><symbol id="shopping-card" viewBox="0 0 39 32"><path fill="#fff" style="fill:var(--color1,#fff)" d="M0 30.853C0 31.486.513 32 1.147 32H37.62c.633 0 1.147-.514 1.147-1.147V3.326c0-.633-.514-1.147-1.147-1.147h-2.244c-.618 0-1.211-.25-1.642-.693L32.583.306a.573.573 0 0 0-.821 0l-1.151 1.18a2.294 2.294 0 0 1-1.642.693H1.148c-.633 0-1.147.514-1.147 1.147v27.527z"/><path fill="#47b39c" style="fill:var(--color2,#47b39c)" d="M3.441 16.057c0-.633.514-1.147 1.147-1.147h30.624v5.735c0 .633-.514 1.147-1.147 1.147H3.441v-5.735z"/><path fill="#fff" style="fill:var(--color1,#fff)" d="M7.609 18.237v.108c0 .148-.019.28-.058.398s-.094.217-.165.3c-.071.082-.156.146-.255.189s-.21.064-.331.064c-.12 0-.23-.021-.329-.064s-.184-.107-.257-.189c-.073-.082-.129-.182-.169-.3s-.059-.25-.059-.398v-.108c0-.148.02-.28.059-.396s.095-.217.167-.3c.073-.083.158-.147.257-.19s.209-.066.329-.066c.121 0 .231.022.331.066s.185.106.257.19c.072.082.127.182.165.3s.059.249.059.396zm-.338.107v-.11c0-.109-.011-.206-.032-.289s-.052-.155-.093-.211c-.04-.057-.09-.1-.149-.129s-.126-.044-.2-.044-.141.015-.199.044c-.058.029-.108.072-.149.129s-.071.127-.093.211c-.021.083-.032.18-.032.289v.11c0 .109.011.206.032.29s.053.155.094.214c.042.057.092.101.151.13s.125.043.199.043a.399.399 0 0 0 .348-.173c.04-.058.071-.13.091-.214s.032-.181.032-.29zm2.37.215v.028c0 .103-.012.198-.035.285s-.056.161-.101.224-.1.113-.167.148a.478.478 0 0 1-.229.052c-.076 0-.142-.013-.199-.039s-.104-.062-.142-.109c-.039-.047-.069-.103-.093-.167s-.04-.135-.051-.212v-.421c.011-.082.027-.158.05-.226.023-.069.054-.129.093-.179a.406.406 0 0 1 .34-.158.451.451 0 0 1 .339.143c.043.045.079.099.108.163s.05.134.065.212c.015.079.023.163.023.254zm-.324.028v-.028c0-.056-.004-.11-.011-.161a.638.638 0 0 0-.09-.252.24.24 0 0 0-.198-.101c-.058 0-.107.01-.145.03s-.066.046-.086.081a.314.314 0 0 0-.036.118v.573c.006.038.019.071.039.1s.05.052.087.068a.373.373 0 0 0 .144.024c.054 0 .099-.011.136-.034s.068-.055.091-.097c.024-.041.042-.089.052-.144s.016-.114.016-.177zm-1.458 0v-.028c0-.09.007-.175.021-.254s.036-.15.065-.212c.03-.064.066-.118.109-.163a.454.454 0 0 1 .339-.143.386.386 0 0 1 .333.158.57.57 0 0 1 .091.179c.023.068.04.143.051.226v.405c-.01.079-.026.151-.05.218s-.054.124-.091.172a.395.395 0 0 1-.338.153.464.464 0 0 1-.396-.2c-.045-.064-.079-.138-.102-.224s-.034-.182-.034-.285zm.324-.028v.028c0 .064.005.123.015.177s.027.103.05.144c.022.04.052.072.089.095s.082.035.136.035c.059 0 .108-.009.145-.027s.066-.043.086-.074a.256.256 0 0 0 .04-.107v-.556c-.005-.045-.018-.084-.038-.118s-.048-.062-.086-.081a.309.309 0 0 0-.145-.03c-.054 0-.099.013-.137.04s-.067.064-.09.111c-.022.047-.039.101-.05.164s-.015.128-.015.198zm.398 1.269v-2.624h.325v2.624h-.325zm1.277-1.27v-.031c0-.105.015-.202.046-.292s.074-.169.132-.235c.058-.067.129-.119.212-.156s.179-.056.285-.056c.107 0 .202.019.285.056s.155.089.214.156c.058.066.103.145.133.235s.046.187.046.292v.031c0 .105-.015.202-.046.292s-.075.168-.133.235a.625.625 0 0 1-.496.211c-.107 0-.202-.018-.286-.055s-.154-.09-.212-.156c-.058-.067-.103-.146-.133-.235s-.046-.187-.046-.292zm.323-.031v.031c0 .065.007.127.02.185s.034.109.063.153a.31.31 0 0 0 .27.141.3.3 0 0 0 .266-.141.47.47 0 0 0 .063-.153.788.788 0 0 0 .021-.185v-.031c0-.064-.007-.125-.021-.183s-.035-.11-.065-.155a.307.307 0 0 0-.267-.144.312.312 0 0 0-.159.039c-.044.025-.08.06-.109.105s-.05.096-.063.155a.821.821 0 0 0-.02.183zm1.625-.433v1.734h-.324v-2.013h.298l.026.28zm.948.434v.028c0 .106-.012.204-.038.294s-.06.168-.109.235c-.047.066-.106.118-.176.155s-.151.055-.242.055-.17-.017-.238-.05-.124-.082-.171-.144-.084-.134-.113-.218a1.41 1.41 0 0 1-.059-.277v-.109c.012-.107.031-.203.059-.29s.066-.162.113-.224a.486.486 0 0 1 .406-.196.53.53 0 0 1 .243.054c.071.035.13.085.179.15s.085.142.109.234c.024.09.036.191.036.302zm-.324.028v-.028c0-.067-.006-.13-.019-.187s-.032-.109-.059-.153a.287.287 0 0 0-.252-.14.334.334 0 0 0-.148.03c-.041.019-.076.045-.103.079s-.049.074-.065.12a.725.725 0 0 0-.032.146v.261c.011.065.029.124.055.177s.063.097.11.129c.048.031.11.047.186.047a.273.273 0 0 0 .25-.141c.027-.045.047-.096.059-.155s.019-.12.019-.185zm1.464.32.433-1.062h.281l-.603 1.454h-.22l-.602-1.454h.281l.431 1.062zm-.515-1.062v1.454h-.324v-1.454h.324zm1.03 1.455v-1.454h.325v1.454h-.325zm1.022-.473.571-.981h.324v1.454h-.324v-.982l-.571.982h-.324v-1.454h.324v.981zm1.913-.982v1.454h-.325v-1.454h.325zm.477 0v.255H16.55v-.255h1.271zm.457.463h.429c.125 0 .232.021.32.063a.46.46 0 0 1 .27.431.5.5 0 0 1-.039.198.431.431 0 0 1-.116.157c-.05.045-.112.08-.185.105s-.156.038-.25.038h-.644v-1.454h.325v1.198h.319c.064 0 .116-.011.154-.034s.066-.052.083-.087c.018-.036.027-.074.027-.114s-.009-.08-.027-.117c-.017-.037-.045-.067-.083-.09s-.09-.035-.154-.035h-.429v-.258zm2.566.297h-.279v-.164h.226c.057 0 .103-.008.137-.023s.06-.036.074-.063a.202.202 0 0 0 0-.188c-.015-.028-.039-.054-.074-.073s-.082-.028-.142-.028c-.049 0-.094.008-.133.024s-.069.039-.091.067a.16.16 0 0 0-.034.099h-.324c0-.09.025-.168.076-.234.052-.065.121-.116.208-.15s.182-.052.286-.052c.089 0 .169.009.239.028s.131.045.18.081c.05.035.088.079.114.132a.39.39 0 0 1 .04.181c0 .049-.012.096-.035.14s-.057.083-.101.117c-.044.033-.097.059-.16.078s-.131.028-.208.028zm-.279-.094h.279c.086 0 .162.009.229.026s.122.04.167.073a.307.307 0 0 1 .101.12.36.36 0 0 1 .035.161.385.385 0 0 1-.168.321c-.053.038-.116.066-.189.086a.925.925 0 0 1-.525-.019.523.523 0 0 1-.224-.149.386.386 0 0 1-.087-.259h.324c0 .037.011.071.034.103s.055.059.097.079c.042.02.093.03.152.03.061 0 .111-.009.149-.028s.067-.045.086-.076a.196.196 0 0 0 .028-.102c0-.048-.009-.087-.028-.117s-.047-.051-.086-.064a.43.43 0 0 0-.145-.022h-.226v-.161zm1.905.497v-.694c0-.052-.009-.097-.028-.134s-.047-.067-.086-.087a.29.29 0 0 0-.142-.031c-.053 0-.099.009-.137.027s-.068.042-.09.073a.178.178 0 0 0-.032.104h-.323c0-.057.014-.113.042-.167s.068-.102.121-.144c.053-.042.116-.075.189-.1s.156-.036.247-.036c.109 0 .206.018.29.055a.438.438 0 0 1 .2.167.488.488 0 0 1 .074.277v.646c0 .066.004.126.013.179s.024.097.042.136v.022h-.332c-.015-.035-.027-.079-.036-.133s-.012-.108-.012-.159zm.047-.593.003.2h-.233a.633.633 0 0 0-.159.018c-.046.011-.084.027-.114.048s-.053.047-.068.078a.233.233 0 0 0 .004.209.186.186 0 0 0 .078.074.354.354 0 0 0 .417-.114.217.217 0 0 0 .046-.114l.105.144c-.011.037-.029.076-.055.118s-.06.082-.102.121a.496.496 0 0 1-.348.129c-.095 0-.18-.019-.254-.056s-.133-.09-.175-.154a.457.457 0 0 1-.02-.426c.03-.06.073-.11.129-.151s.127-.071.21-.091c.082-.021.177-.032.282-.032h.254zm.967-.57v1.454h-.324v-1.454h.324zm.949 0-.655.875h-.37l-.043-.293h.27l.392-.582h.405zm-.379 1.455-.438-.634.255-.184.609.819h-.426zm1.422-.292v-.694c0-.052-.009-.097-.028-.134s-.047-.067-.086-.087a.29.29 0 0 0-.142-.031c-.053 0-.099.009-.137.027s-.069.042-.09.073a.178.178 0 0 0-.032.104h-.323c0-.057.014-.113.042-.167s.068-.102.121-.144c.053-.042.116-.075.189-.1s.156-.036.247-.036c.109 0 .206.018.29.055a.438.438 0 0 1 .2.167.488.488 0 0 1 .074.277v.646c0 .066.004.126.013.179s.024.097.042.136v.022h-.332c-.015-.035-.027-.079-.036-.133s-.012-.108-.012-.159zm.047-.593.003.2h-.233a.633.633 0 0 0-.159.018c-.046.011-.084.027-.114.048s-.053.047-.069.078-.023.065-.023.103c0 .039.009.074.027.106s.044.056.078.074a.354.354 0 0 0 .417-.114.217.217 0 0 0 .046-.114l.105.144c-.011.037-.029.076-.055.118s-.06.082-.102.121a.496.496 0 0 1-.348.129c-.095 0-.18-.019-.254-.056s-.133-.09-.175-.154a.457.457 0 0 1-.02-.426c.03-.06.073-.11.129-.151s.127-.071.21-.091c.082-.021.177-.032.282-.032h.254zm1.219.19h-.279v-.164h.226c.057 0 .103-.008.137-.023s.06-.036.074-.063a.202.202 0 0 0 0-.188c-.015-.028-.039-.054-.074-.073s-.082-.028-.142-.028c-.049 0-.094.008-.133.024s-.069.039-.091.067a.16.16 0 0 0-.034.099h-.324c0-.09.026-.168.077-.234.052-.065.121-.116.208-.15s.182-.052.286-.052c.089 0 .169.009.239.028s.131.045.18.081c.05.035.088.079.114.132a.39.39 0 0 1 .04.181c0 .049-.012.096-.035.14s-.057.083-.101.117c-.044.033-.097.059-.16.078s-.131.028-.208.028zm-.28-.094h.279c.086 0 .162.009.228.026s.122.04.167.073a.307.307 0 0 1 .101.12.36.36 0 0 1 .035.161.385.385 0 0 1-.168.321c-.053.038-.116.066-.189.086a.925.925 0 0 1-.525-.019.523.523 0 0 1-.224-.149.386.386 0 0 1-.087-.259h.324c0 .037.011.071.034.103s.055.059.097.079c.042.02.093.03.152.03.061 0 .111-.009.149-.028s.067-.045.086-.076a.196.196 0 0 0 .028-.102c0-.048-.009-.087-.028-.117s-.047-.051-.086-.064a.43.43 0 0 0-.145-.022h-.226v-.161zM32.674 17.233c-.014-.014-.029-.029-.057-.029h-2.724l-.072-.373c0-.029-.043-.057-.072-.057h-.43c-.043 0-.072.029-.072.072s.029.072.072.072h.373l.344 1.749a.505.505 0 0 0 .487.401h1.649c.043 0 .072-.029.072-.072s-.029-.072-.072-.072h-1.634a.33.33 0 0 1-.287-.158l2.093-.287c.029 0 .057-.029.057-.057l.287-1.147s0-.029-.014-.043zm-.402 1.118-2.093.272-.258-1.29h2.595l-.244 1.018zM30.466 19.211c-.201 0-.358.158-.358.358s.158.358.358.358c.201 0 .358-.158.358-.358s-.158-.358-.358-.358zm0 .574c-.115 0-.215-.1-.215-.215s.1-.215.215-.215c.115 0 .215.1.215.215s-.1.215-.215.215zM31.9 19.211c-.201 0-.358.158-.358.358s.158.358.358.358c.201 0 .358-.158.358-.358s-.158-.358-.358-.358zm0 .574c-.115 0-.215-.1-.215-.215s.1-.215.215-.215c.115 0 .215.1.215.215s-.1.215-.215.215z"/><path fill="#33485d" style="fill:var(--color3,#33485d)" d="M3.845 26.867v.545H3.59v-1.468h.561c.164 0 .294.043.39.128s.145.198.145.339c0 .144-.047.256-.142.336s-.226.12-.396.12h-.303zm0-.205h.306c.091 0 .16-.021.208-.064s.072-.105.072-.185c0-.079-.024-.142-.073-.189s-.115-.072-.2-.074h-.313v.512zm1.508.77c-.155 0-.281-.049-.378-.146s-.144-.228-.144-.391v-.03c0-.109.021-.206.063-.291s.101-.153.177-.201.161-.072.254-.072c.149 0 .263.047.344.142s.122.229.122.402v.099h-.713c.007.09.037.161.09.214s.12.079.2.079a.33.33 0 0 0 .274-.136l.132.126c-.044.065-.102.116-.175.152s-.154.053-.245.053zm-.029-.934c-.067 0-.122.023-.163.071s-.067.113-.079.196h.467v-.018c-.005-.082-.027-.144-.066-.185s-.091-.064-.159-.064zm.662.719c.068-.076.113-.148.136-.216s.038-.156.042-.262l.014-.417h.757v.895h.151v.52h-.244v-.325h-.7v.325h-.248l.001-.52h.09zm.288 0h.418v-.684h-.275l-.007.209a.898.898 0 0 1-.136.476zm1.64.195a.372.372 0 0 1-.028-.102.382.382 0 0 1-.286.122c-.11 0-.199-.031-.268-.094s-.104-.14-.104-.232c0-.116.043-.205.129-.267s.21-.094.371-.094h.15v-.072c0-.056-.016-.101-.047-.135s-.08-.052-.144-.052c-.056 0-.101.014-.137.042s-.053.063-.053.106h-.245c0-.06.02-.116.059-.167s.093-.093.161-.123a.567.567 0 0 1 .229-.044c.128 0 .229.032.305.097s.115.154.117.27v.492a.57.57 0 0 0 .041.235v.017h-.25zm-.27-.176c.048 0 .094-.012.136-.035s.075-.055.097-.095V26.9h-.132c-.091 0-.159.016-.205.047s-.069.076-.069.134c0 .047.015.085.046.113s.074.041.126.041zm1.122-.255h-.124v.431h-.245v-1.091h.245v.436h.108l.301-.436h.302l-.394.522.427.569h-.319l-.302-.431zm1.614-.465h-.354v.896h-.245v-.896h-.35v-.195h.949v.195zm.845-.195h.244v1.091h-.244v-.728l-.427.728h-.244v-1.091h.244v.728l.427-.728zm1.46.557c0 .169-.038.303-.115.404s-.179.15-.309.15a.368.368 0 0 1-.287-.118v.517h-.245v-1.51h.226l.01.111a.361.361 0 0 1 .293-.131c.133 0 .237.05.313.149s.114.236.114.412v.015zm-.244-.021c0-.109-.022-.195-.066-.259s-.105-.096-.185-.096c-.1 0-.172.041-.216.124v.484c.044.085.117.127.218.127.078 0 .139-.031.182-.094s.067-.159.067-.286zm.406 0c0-.107.021-.203.063-.288a.47.47 0 0 1 .442-.268c.147 0 .266.047.358.142s.142.22.149.377l.001.057c0 .107-.021.204-.063.288a.47.47 0 0 1-.443.267c-.154 0-.277-.051-.37-.153s-.138-.24-.138-.41v-.012zm.245.021c0 .112.023.2.07.264s.111.095.194.095.147-.032.193-.097.07-.159.07-.283c0-.11-.024-.198-.072-.262s-.111-.097-.193-.097c-.08 0-.143.032-.191.096s-.071.158-.071.284zm.995.534v-1.091h.443c.149 0 .263.026.341.079s.117.126.117.224c0 .05-.016.096-.047.136s-.077.07-.138.092c.071.015.128.045.169.09s.063.098.063.159c0 .102-.038.179-.113.232s-.182.08-.323.08h-.511zm.245-.465v.271h.268c.126 0 .188-.045.188-.135s-.064-.136-.191-.136h-.265zm0-.175h.202c.139 0 .209-.041.209-.123 0-.086-.066-.13-.197-.133h-.213v.256zm1.565.64a.372.372 0 0 1-.028-.102.382.382 0 0 1-.286.122c-.11 0-.199-.031-.268-.094s-.104-.14-.104-.232c0-.116.043-.205.129-.267s.21-.094.371-.094h.15v-.072c0-.056-.016-.101-.047-.135s-.08-.052-.144-.052c-.056 0-.101.014-.137.042s-.053.063-.053.106h-.245c0-.06.02-.116.06-.167s.093-.093.161-.123a.567.567 0 0 1 .229-.044c.128 0 .229.032.305.097s.115.154.117.27v.492a.57.57 0 0 0 .041.235v.017h-.25zm-.269-.176c.048 0 .094-.012.136-.035s.075-.055.097-.095V26.9h-.132c-.091 0-.159.016-.205.047s-.068.076-.068.134c0 .047.015.085.046.113s.074.041.126.041zm1.577-.72h-.354v.896h-.245v-.896h-.35v-.195h.949v.195zm.427.152h.24c.089 0 .167.015.234.046s.117.074.151.13a.36.36 0 0 1 .052.195c0 .112-.04.202-.119.27s-.185.102-.317.103h-.487v-1.091h.245v.347zm0 .197v.352h.239c.06 0 .107-.015.141-.044s.052-.073.052-.128-.017-.098-.051-.13a.191.191 0 0 0-.137-.049h-.244zm2.214-.245c0 .048-.015.093-.044.134s-.07.073-.123.097c.125.044.188.128.188.253 0 .1-.041.18-.122.24s-.19.089-.327.089c-.083 0-.159-.014-.228-.041s-.122-.068-.16-.119a.302.302 0 0 1-.057-.183h.244c0 .044.02.082.06.112s.09.044.15.044.107-.014.142-.041.053-.065.053-.11c0-.053-.015-.091-.046-.115s-.079-.035-.143-.035h-.175v-.176h.181c.11-.001.164-.046.164-.135 0-.044-.016-.079-.047-.104s-.075-.037-.13-.037c-.054 0-.099.013-.136.04s-.055.06-.055.1h-.244c0-.096.04-.175.121-.236s.183-.093.308-.093c.135 0 .24.028.316.083s.113.133.113.235zm.88.792a.372.372 0 0 1-.028-.102.382.382 0 0 1-.286.122c-.11 0-.199-.031-.268-.094s-.104-.14-.104-.232c0-.116.043-.205.129-.267s.21-.094.371-.094h.15v-.072c0-.056-.016-.101-.047-.135s-.08-.052-.144-.052c-.056 0-.102.014-.137.042s-.053.063-.053.106h-.245c0-.06.02-.116.059-.167s.093-.093.161-.123a.564.564 0 0 1 .229-.044c.128 0 .23.032.305.097s.115.154.117.27v.492a.57.57 0 0 0 .041.235v.017h-.25zm-.269-.176c.048 0 .094-.012.136-.035s.075-.055.097-.095V26.9h-.132c-.091 0-.159.016-.205.047s-.069.076-.069.134c0 .047.015.085.046.113s.074.041.126.041zm1.122-.255h-.124v.431h-.245v-1.091h.245v.436h.108l.301-.436h.302l-.394.522.427.569h-.319l-.302-.431zm1.407.431a.372.372 0 0 1-.028-.102.382.382 0 0 1-.286.122c-.11 0-.199-.031-.268-.094s-.104-.14-.104-.232c0-.116.043-.205.129-.267s.21-.094.371-.094h.15v-.072c0-.056-.016-.101-.047-.135s-.08-.052-.144-.052c-.056 0-.102.014-.137.042s-.053.063-.053.106h-.245c0-.06.02-.116.059-.167s.093-.093.161-.123a.564.564 0 0 1 .229-.044c.128 0 .23.032.305.097s.115.154.117.27v.492a.57.57 0 0 0 .041.235v.017h-.25zm-.269-.176c.048 0 .094-.012.136-.035s.075-.055.097-.095V26.9h-.132c-.091 0-.159.016-.205.047s-.068.076-.068.134c0 .047.015.085.046.113s.074.041.126.041zm1.561-.616c0 .048-.015.093-.044.134s-.07.073-.123.097c.125.044.188.128.188.253 0 .1-.041.18-.122.24s-.19.089-.327.089c-.083 0-.159-.014-.228-.041s-.122-.068-.16-.119a.302.302 0 0 1-.057-.183h.244c0 .044.02.082.059.112s.09.044.15.044.107-.014.142-.041.053-.065.053-.11c0-.053-.015-.091-.046-.115s-.079-.035-.143-.035h-.175v-.176h.181c.11-.001.164-.046.164-.135 0-.044-.016-.079-.047-.104s-.075-.037-.13-.037c-.054 0-.099.013-.136.04s-.055.06-.055.1h-.244c0-.096.04-.175.121-.236s.183-.093.308-.093c.135 0 .24.028.316.083s.113.133.113.235z"/><path fill="#5c6d7d" style="fill:var(--color4,#5c6d7d)" opacity=".5" d="M3.441 28.444h20.871v.115H3.441v-.115z"/><path fill="#5c6d7d" style="fill:var(--color4,#5c6d7d)" d="M3.611 7.34V5.872h.48c.159 0 .279.033.359.099s.121.163.121.292c0 .069-.019.129-.058.182s-.092.093-.159.122c.079.022.142.065.188.127s.07.136.07.222c0 .132-.043.235-.128.31s-.206.113-.362.113h-.509zm.194-.686v.528h.32c.09 0 .161-.023.213-.07s.079-.112.079-.194c0-.177-.096-.265-.288-.265h-.323zm0-.155h.292c.085 0 .152-.021.203-.064s.077-.1.077-.172c0-.081-.024-.139-.071-.175s-.119-.055-.215-.055h-.286V6.5zm1.915.377h-.136v.465h-.188V6.25h.188v.462h.122l.367-.462h.226l-.431.524.468.567h-.237l-.378-.465zm.704-.091c0-.107.021-.203.063-.288s.101-.151.175-.198a.483.483 0 0 1 .257-.07c.149 0 .268.051.36.154s.138.24.138.41v.013c0 .106-.021.202-.061.286s-.098.15-.174.197a.48.48 0 0 1-.26.071c-.148 0-.268-.051-.36-.154s-.137-.239-.137-.408v-.013zm.187.022c0 .121.028.218.084.291s.132.11.226.11c.095 0 .17-.037.226-.111s.084-.179.084-.313c0-.12-.029-.216-.086-.29s-.132-.112-.226-.112c-.092 0-.166.037-.223.11s-.085.178-.085.315zm1.961 0c0 .166-.038.3-.114.401s-.179.152-.308.152a.402.402 0 0 1-.313-.126v.525h-.186v-1.51h.17l.009.121a.384.384 0 0 1 .317-.141c.131 0 .235.049.31.148s.115.236.115.412v.017zm-.187-.021c0-.123-.026-.22-.079-.291s-.124-.107-.216-.107a.274.274 0 0 0-.254.15v.521a.275.275 0 0 0 .256.149c.089 0 .16-.035.213-.106s.08-.177.08-.317zm1.025-.238c0-.051-.02-.091-.058-.121s-.092-.045-.16-.045c-.066 0-.121.017-.165.051s-.066.075-.066.121h-.185c0-.095.04-.172.119-.233s.178-.091.297-.091c.128 0 .227.028.298.083s.107.132.107.234c0 .049-.015.094-.044.135s-.072.074-.126.098c.127.043.191.128.191.254 0 .1-.039.179-.116.238s-.18.088-.309.088c-.126 0-.229-.031-.312-.092s-.122-.145-.122-.25h.185c0 .053.024.099.071.137s.107.056.177.056c.071 0 .129-.016.172-.049s.066-.076.066-.128c0-.061-.018-.105-.055-.131s-.093-.04-.17-.04h-.187v-.157h.203c.127-.003.191-.056.191-.157zm1.154-.298h.187v1.091h-.187v-.795l-.503.795h-.187V6.25h.187v.796l.503-.796zm1.377 1.09h-.187v-.466h-.501v.466h-.188V6.249h.188v.473h.501v-.473h.187V7.34zm.753.021c-.148 0-.268-.048-.361-.145s-.139-.228-.139-.39v-.034c0-.108.021-.205.062-.289s.099-.152.173-.2a.44.44 0 0 1 .242-.073c.142 0 .252.047.331.14s.118.227.118.401v.078h-.739c.003.108.034.195.094.261s.137.099.23.099c.066 0 .122-.013.167-.04s.086-.063.12-.107l.114.089a.458.458 0 0 1-.411.211zm-.023-.978c-.075 0-.138.028-.19.083s-.083.131-.095.23h.546v-.014c-.005-.095-.031-.168-.077-.22s-.108-.079-.185-.079zM4.739 9.749h-.195v-.678h-.74v.678H3.61V8.281h.194v.631h.74v-.631h.195v1.468zm.988 0a.392.392 0 0 1-.026-.115.417.417 0 0 1-.311.135c-.108 0-.196-.03-.265-.091s-.103-.138-.103-.232c0-.114.043-.202.129-.264s.208-.095.365-.095h.181v-.086c0-.065-.019-.117-.058-.155s-.096-.058-.172-.058c-.067 0-.122.017-.167.05s-.068.074-.068.122h-.188c0-.054.019-.107.057-.157s.091-.091.157-.121a.526.526 0 0 1 .219-.044c.126 0 .224.032.295.095s.108.149.111.259v.502c0 .1.013.18.038.239v.016h-.196zm-.309-.142c.058 0 .114-.015.166-.045s.09-.07.114-.118V9.22h-.146c-.229 0-.343.067-.343.201 0 .058.019.104.058.137s.089.049.15.049zm1.708.01c.067 0 .125-.02.174-.06s.077-.091.083-.151h.176c-.003.063-.025.122-.065.178s-.093.101-.159.135a.451.451 0 0 1-.21.05c-.149 0-.267-.049-.355-.148s-.131-.235-.131-.407v-.031c0-.106.019-.201.058-.283s.095-.147.167-.193a.477.477 0 0 1 .259-.069c.122 0 .224.037.304.11s.125.168.13.285h-.176c-.005-.071-.032-.128-.081-.173s-.107-.069-.177-.069c-.095 0-.168.034-.221.103s-.078.166-.078.295v.035c0 .126.026.222.078.29s.126.102.222.102zm1-.141.254-.818h.2l-.438 1.259c-.068.181-.176.272-.324.272l-.035-.003-.07-.013v-.151l.05.004c.063 0 .112-.013.147-.038s.065-.072.088-.14l.041-.111-.389-1.079h.204l.272.818zm1.249.026.371-.844h.233v1.091h-.187v-.793l-.353.793H9.31l-.36-.81v.81h-.187V8.658h.242l.369.844zm1.533 0 .371-.844h.233v1.091h-.186v-.793l-.353.793h-.129l-.36-.81v.81h-.187V8.658h.242l.369.844zm1.261-.026.254-.818h.2l-.438 1.259c-.068.181-.176.272-.324.272l-.035-.003-.07-.013v-.151l.05.004c.063 0 .112-.013.147-.038s.065-.072.088-.14l.041-.111-.389-1.079h.204l.272.818z"/><path fill="#33485d" style="fill:var(--color3,#33485d)" d="M14.103 6.478h.155c.074 0 .129-.019.164-.055s.053-.086.053-.147c0-.059-.018-.105-.053-.138s-.083-.049-.145-.049c-.056 0-.102.015-.14.046s-.056.07-.056.119h-.291c0-.077.02-.145.061-.206s.099-.109.173-.143a.589.589 0 0 1 .246-.051c.155 0 .277.037.365.112a.38.38 0 0 1 .071.492.39.39 0 0 1-.161.13c.083.03.144.074.184.133s.061.129.061.21c0 .13-.048.235-.143.314s-.22.118-.377.118c-.146 0-.266-.039-.36-.116s-.139-.179-.139-.306h.291c0 .055.021.1.061.135s.093.052.153.052c.069 0 .123-.018.162-.054s.06-.086.06-.146c0-.146-.081-.22-.242-.22h-.154V6.48zm2.321.006h-.35v.857h-.292v-.857h-.344V6.25h.986v.234zm.071.301c0-.108.021-.205.063-.289s.102-.15.18-.197a.533.533 0 0 1 .273-.07c.147 0 .267.045.36.135s.146.212.156.367l.002.075c0 .167-.047.302-.14.403s-.219.151-.376.151-.283-.05-.377-.151a.583.583 0 0 1-.14-.411v-.013zm.292.021c0 .104.02.183.058.238s.095.082.167.082c.071 0 .126-.027.165-.081s.059-.141.059-.26c0-.101-.02-.18-.059-.236s-.095-.084-.167-.084c-.071 0-.126.028-.165.084s-.058.141-.058.257zm.94.534V6.249h.456c.149 0 .262.026.342.079s.119.128.119.226c0 .05-.017.096-.05.136s-.081.07-.145.092c.078.015.139.044.183.088s.068.096.068.159c0 .101-.038.179-.115.232s-.186.08-.332.08h-.525zm.292-.452v.22h.235c.103 0 .154-.036.154-.108 0-.073-.049-.111-.147-.112h-.242zm0-.196h.18c.102-.001.153-.034.153-.099 0-.04-.014-.068-.042-.085s-.07-.025-.127-.025h-.164v.209zm1.49.648a.307.307 0 0 1-.029-.098.351.351 0 0 1-.275.118c-.107 0-.196-.031-.266-.093s-.105-.14-.105-.234c0-.116.043-.204.128-.266s.21-.093.372-.094h.134V6.61c0-.05-.013-.091-.039-.121s-.066-.045-.122-.045c-.049 0-.088.012-.116.035s-.041.056-.041.097h-.291c0-.063.02-.122.058-.175s.094-.096.165-.126a.594.594 0 0 1 .24-.046c.134 0 .241.034.32.102s.119.162.119.284v.473a.529.529 0 0 0 .043.235v.017h-.294zm-.241-.202c.043 0 .083-.009.119-.028s.063-.045.081-.078v-.188h-.109c-.146 0-.223.05-.233.151l-.001.017c0 .036.013.066.038.09s.06.035.105.035zm1.698-.333c0 .168-.038.303-.115.404s-.179.151-.309.151a.339.339 0 0 1-.267-.115v.514h-.291v-1.51h.27l.01.107a.342.342 0 0 1 .276-.127c.134 0 .239.05.313.149s.112.237.112.411v.015zm-.291-.021c0-.101-.018-.18-.054-.235s-.088-.083-.156-.083c-.091 0-.154.035-.189.105v.447c.036.072.099.108.191.108.139 0 .209-.114.209-.342zm1.105.556a.307.307 0 0 1-.029-.098.351.351 0 0 1-.275.118c-.107 0-.196-.031-.266-.093s-.105-.14-.105-.234c0-.116.043-.204.128-.266s.21-.093.372-.094h.134V6.61c0-.05-.013-.091-.039-.121s-.066-.045-.122-.045c-.049 0-.088.012-.116.035s-.041.056-.041.097h-.291c0-.063.02-.122.058-.175s.094-.096.165-.126a.594.594 0 0 1 .24-.046c.134 0 .241.034.32.102s.119.162.119.284v.473a.529.529 0 0 0 .043.235v.017h-.294zm-.241-.202c.043 0 .083-.009.119-.028s.063-.045.081-.078v-.188h-.109c-.146 0-.223.05-.233.151l-.001.017c0 .036.013.066.038.09s.06.035.105.035zm-7.982 1.748h.155c.074 0 .129-.018.164-.055s.053-.086.053-.147c0-.059-.018-.105-.053-.138s-.083-.049-.145-.049c-.056 0-.103.015-.14.046s-.056.07-.056.119h-.291c0-.077.021-.145.061-.206s.099-.109.173-.143a.589.589 0 0 1 .246-.051c.155 0 .277.037.365.112s.132.176.132.306c0 .067-.02.129-.061.185s-.095.1-.161.13c.083.03.144.074.184.133s.061.129.061.21c0 .13-.048.235-.143.313s-.22.118-.377.118c-.146 0-.266-.039-.36-.116s-.139-.179-.139-.306h.291c0 .055.02.1.061.135s.093.052.153.052c.069 0 .123-.018.162-.054s.059-.086.059-.146c0-.146-.081-.22-.242-.22h-.154v-.228zm1.877.256c0 .203-.042.358-.126.466s-.207.161-.369.161c-.16 0-.282-.053-.367-.158s-.128-.257-.13-.454v-.27c0-.205.042-.361.127-.467s.208-.159.368-.159.282.053.367.158.128.256.13.453v.27zm-.292-.296c0-.122-.017-.21-.05-.265s-.085-.084-.155-.084c-.068 0-.119.027-.152.08s-.049.135-.051.247v.357c0 .12.016.209.048.267s.085.087.157.087c.071 0 .123-.028.154-.084s.048-.141.049-.256v-.349zm1.991.296c0 .203-.042.358-.126.466s-.207.161-.369.161c-.16 0-.282-.053-.367-.158s-.128-.257-.13-.454v-.27c0-.205.042-.361.127-.467s.208-.159.368-.159.282.053.367.158.128.256.13.453v.27zm-.291-.296c0-.122-.017-.21-.05-.265s-.085-.084-.155-.084c-.069 0-.119.027-.152.08s-.049.135-.052.247v.357c0 .12.016.209.048.267s.085.087.157.087c.071 0 .123-.028.154-.084s.048-.141.049-.256v-.349zm1.477.296c0 .203-.042.358-.126.466s-.207.161-.369.161c-.16 0-.282-.053-.367-.158s-.128-.257-.13-.454v-.27c0-.205.042-.361.127-.467s.208-.159.368-.159.282.053.367.158.128.256.13.453v.27zm-.291-.296c0-.122-.017-.21-.05-.265s-.085-.084-.155-.084c-.069 0-.119.027-.152.08s-.049.135-.052.247v.357c0 .12.016.209.048.267s.085.087.157.087c.071 0 .123-.028.154-.084s.048-.141.049-.256v-.349zm1.476.296c0 .203-.042.358-.126.466s-.207.161-.369.161c-.16 0-.282-.053-.367-.158s-.128-.257-.13-.454v-.27c0-.205.042-.361.127-.467s.208-.159.368-.159.282.053.367.158.128.256.13.453v.27zm-.291-.296c0-.122-.017-.21-.05-.265s-.085-.084-.155-.084c-.069 0-.119.027-.152.08s-.049.135-.052.247v.357c0 .12.016.209.048.267s.085.087.157.087c.071 0 .123-.028.154-.084s.048-.141.049-.256v-.349zm1.502.924c-.161 0-.285-.032-.372-.097s-.13-.162-.13-.293c0-.052.008-.1.023-.142h-.097v-.132h.173a.4.4 0 0 1 .109-.074c.047-.023.095-.044.145-.062l.134-.045a.704.704 0 0 0 .074-.029h-.636v-.132h.789a.292.292 0 0 0 .031-.138.184.184 0 0 0-.066-.151c-.044-.037-.113-.056-.206-.056a.675.675 0 0 0-.192.027 1.206 1.206 0 0 0-.159.06l-.052-.163c.052-.025.116-.045.192-.062s.149-.025.221-.025c.139 0 .248.029.328.087.081.056.122.143.122.26a.636.636 0 0 1-.006.087.238.238 0 0 1-.023.074h.114v.132h-.18a.388.388 0 0 1-.103.068c-.047.022-.096.043-.147.062l-.138.05a.679.679 0 0 0-.081.031h.648v.132h-.803c-.011.021-.019.04-.023.058s-.006.043-.006.074c0 .16.111.239.332.239a.9.9 0 0 0 .227-.029c.074-.021.136-.042.186-.064v.167a1.081 1.081 0 0 1-.43.087z"/><path fill="#fff" style="fill:var(--color1,#fff)" d="M0 30.853C0 31.486.513 32 1.147 32H37.62c.633 0 1.147-.514 1.147-1.147V3.326c0-.633-.514-1.147-1.147-1.147h-2.244c-.618 0-1.211-.25-1.642-.693L32.583.306a.573.573 0 0 0-.821 0l-1.151 1.18a2.294 2.294 0 0 1-1.642.693H1.148c-.633 0-1.147.514-1.147 1.147v27.527z"/></symbol><symbol id="hoverarrow-open" viewBox="0 0 21 32"><path fill="#33485d" style="fill:var(--color1,#33485d)" d="M3.863.663a2.262 2.262 0 1 0-3.2 3.2l11.976 11.976L.663 27.815a2.262 2.262 0 1 0 3.2 3.2l13.576-13.576a2.262 2.262 0 0 0 0-3.2L3.863.663z"/></symbol></defs></svg>