<svg aria-hidden="true" style="position: absolute; width: 0; height: 0; overflow: hidden;" version="1.1" xmlns="http://www.w3.org/2000/svg" xmlns:xlink="http://www.w3.org/1999/xlink">
<defs>
<symbol id="star" viewBox="0 0 34 32">
<path  d="M6.836 31.998c-0.125 0-0.251-0.038-0.356-0.115-0.187-0.135-0.28-0.363-0.24-0.588l1.872-10.831-7.929-7.67c-0.165-0.16-0.224-0.399-0.153-0.616s0.261-0.376 0.489-0.409l10.956-1.58 4.9-9.854c0.102-0.206 0.313-0.335 0.543-0.335s0.442 0.13 0.543 0.335l4.9 9.854 10.957 1.58c0.228 0.033 0.417 0.191 0.489 0.409 0.071 0.217 0.012 0.456-0.153 0.616l-7.929 7.671 1.872 10.831c0.039 0.225-0.055 0.453-0.24 0.588-0.186 0.136-0.434 0.153-0.638 0.046l-9.8-5.113-9.801 5.113c-0.088 0.046-0.185 0.068-0.282 0.068z"></path>
</symbol>
</defs>
</svg>
