<?xml version="1.0" standalone="no"?>
<!DOCTYPE svg PUBLIC "-//W3C//DTD SVG 20010904//EN"
 "http://www.w3.org/TR/2001/REC-SVG-20010904/DTD/svg10.dtd">
<svg version="1.0" xmlns="http://www.w3.org/2000/svg"
 width="1824.000000pt" height="1824.000000pt" viewBox="0 0 1824.000000 1824.000000"
 preserveAspectRatio="xMidYMid meet">
<metadata>
Created by potrace 1.14, written by Peter Selinger 2001-2017
</metadata>
<g transform="translate(0.000000,1824.000000) scale(0.100000,-0.100000)"
fill="#000000" stroke="none">
<path d="M1005 12385 c-501 -95 -879 -467 -986 -970 -27 -131 -27 -380 2 -512
50 -229 151 -427 302 -590 34 -37 420 -434 857 -883 1091 -1119 2746 -2816
3025 -3102 184 -189 247 -247 317 -293 220 -141 445 -203 707 -192 208 8 383
60 561 167 125 75 185 129 490 442 156 161 458 471 670 688 212 217 754 773
1204 1235 450 462 853 875 895 918 l77 78 369 -378 c203 -208 552 -565 775
-793 499 -510 1634 -1674 1865 -1911 97 -99 202 -198 245 -228 145 -102 315
-174 488 -207 119 -22 383 -15 493 14 232 62 418 171 579 339 89 92 3274 3355
3694 3783 310 316 388 411 465 560 93 179 130 325 138 536 11 280 -60 526
-219 762 -357 530 -1097 669 -1637 308 -117 -78 -130 -91 -773 -746 -2083
-2122 -2519 -2565 -2527 -2565 -8 0 -898 909 -2894 2957 -314 323 -380 377
-550 458 -345 165 -758 151 -1092 -38 -120 -67 -193 -129 -365 -306 -221 -227
-2491 -2556 -2780 -2852 l-215 -220 -106 105 c-59 58 -764 781 -1568 1606
-804 825 -1498 1531 -1544 1568 -144 120 -286 193 -473 243 -127 33 -362 42
-489 19z"/>
</g>
</svg>
